<?xml version="1.0" encoding="UTF-8"?>
<svg id="Layer_2" data-name="Layer 2" xmlns="http://www.w3.org/2000/svg" viewBox="0 0 21.88 21.88">
  <defs>
    <style>
      .cls-1 {
        fill: #6692b2;
      }
    </style>
  </defs>
  <g id="Layer_1-2" data-name="Layer 1">
    <g>
      <path class="cls-1" d="M10.94,21.88C4.91,21.88,0,16.97,0,10.94S4.91,0,10.94,0s10.94,4.91,10.94,10.94-4.91,10.94-10.94,10.94ZM10.94,1.2C5.57,1.2,1.2,5.57,1.2,10.94s4.37,9.74,9.74,9.74,9.74-4.37,9.74-9.74S16.31,1.2,10.94,1.2Z"/>
      <path class="cls-1" d="M8.77,15.14c.04-.18,.1-.41,.18-.7l1.08-3.93s.02-.09,.03-.14,.01-.09,.01-.13c0-.23-.07-.38-.22-.44s-.42-.09-.81-.11v-.46c.33-.02,.8-.07,1.43-.14,.62-.07,1.07-.13,1.33-.18l.75-.15-1.36,4.98c-.11,.43-.19,.72-.23,.89-.1,.42-.15,.69-.15,.82s.03,.21,.09,.24,.12,.06,.19,.06c.18,0,.4-.15,.66-.45s.49-.62,.69-.95l.38,.25c-.57,.84-1.01,1.4-1.31,1.69-.5,.48-1.02,.72-1.59,.72-.32,0-.61-.1-.86-.29s-.38-.5-.38-.9c0-.14,.03-.37,.1-.67ZM12.88,5.22c.23,.23,.34,.5,.34,.83s-.11,.6-.34,.83-.5,.35-.83,.35-.6-.12-.83-.35-.35-.51-.35-.83,.12-.6,.35-.83,.51-.34,.83-.34,.6,.11,.83,.34Z"/>
    </g>
  </g>
</svg>