<?xml version="1.0" encoding="UTF-8"?>
<svg id="Layer_2" data-name="Layer 2" xmlns="http://www.w3.org/2000/svg" viewBox="0 0 30.88 22">
  <defs>
    <style>
      .cls-1 {
        fill: #6692b2;
      }

      .cls-2 {
        fill: none;
        stroke: #6692b2;
        stroke-miterlimit: 10;
      }
    </style>
  </defs>
  <g id="Layer_1-2" data-name="Layer 1">
    <g>
      <line class="cls-2" x1="25.45" y1="13.29" x2="28.39" y2="13.29"/>
      <circle class="cls-2" cx="29.15" cy="13.29" r="1.23"/>
      <line class="cls-2" x1="5.43" y1="13.29" x2="2.49" y2="13.29"/>
      <circle class="cls-2" cx="1.73" cy="13.29" r="1.23"/>
      <line class="cls-2" x1="25.45" y1="6.86" x2="28.39" y2="6.86"/>
      <circle class="cls-2" cx="29.15" cy="6.86" r="1.23"/>
      <line class="cls-2" x1="5.43" y1="6.86" x2="2.49" y2="6.86"/>
      <circle class="cls-2" cx="1.73" cy="6.86" r="1.23"/>
      <g>
        <rect class="cls-2" x="5.43" y=".5" width="20.23" height="16.35"/>
        <line class="cls-2" x1="5.43" y1="3.3" x2="25.73" y2="3.3"/>
      </g>
      <g>
        <line class="cls-2" x1="20.3" y1="16.57" x2="20.3" y2="19.51"/>
        <circle class="cls-2" cx="20.3" cy="20.27" r="1.23"/>
      </g>
      <g>
        <line class="cls-2" x1="11.39" y1="16.57" x2="11.39" y2="19.51"/>
        <circle class="cls-2" cx="11.39" cy="20.27" r="1.23"/>
      </g>
      <path class="cls-1" d="M15.07,15.44v-1.6l-.26-.05c-.79-.16-1.5-.57-2.04-1.18l-.18-.2-1.39,.8-.51-.89,1.39-.8-.08-.25c-.13-.38-.19-.78-.19-1.18s.06-.8,.19-1.18l.08-.25-1.39-.8,.51-.89,1.39,.8,.18-.2c.54-.61,1.25-1.02,2.04-1.18l.26-.05v-1.6h1.02v1.6l.26,.05c.79,.16,1.5,.57,2.04,1.18l.18,.2,1.39-.8,.51,.89-1.39,.8,.08,.25c.13,.38,.19,.78,.19,1.18s-.06,.8-.19,1.18l-.08,.25,1.39,.8-.51,.89-1.39-.8-.18,.2c-.54,.61-1.25,1.01-2.04,1.18l-.26,.05v1.6h-1.02Zm.51-8.04c-1.48,0-2.69,1.21-2.69,2.69s1.21,2.69,2.69,2.69,2.69-1.21,2.69-2.69-1.21-2.69-2.69-2.69Z"/>
    </g>
  </g>
</svg>