<?xml version="1.0" encoding="UTF-8"?><svg id="Layer_2" xmlns="http://www.w3.org/2000/svg" viewBox="0 0 245.16 140.11"><defs><style>.cls-1{fill:none;}.cls-2{fill:#00abe4;}.cls-3{fill:#00ab97;}.cls-4{fill:#fff;}.cls-5{fill:#feeb17;}.cls-6{fill:#9ca8b0;}.cls-7{fill:#164194;}.cls-8{fill:#1e1e1c;}</style></defs><g id="Layer_1-2"><polygon class="cls-3" points="0 0 0 59.85 18.4 78.25 78.25 78.25 78.25 18.4 59.85 0 0 0"/><rect class="cls-2" x="0" y="41.49" width="78.25" height="2.65"/><path class="cls-2" d="m245.16,74.34c-.06-1.03-.16-1.52-1.03-2.45l-5.3-4.5c-.16-.26-.3-.46-.3-.76,0-1.03,1.13-1.65,2.22-1.65.8,0,1.52.23,2.42.5.89.23,1.42-.33,1.42-1.06,0-.46-.16-.83-.73-.99-.86-.3-1.89-.66-3.11-.66-1.72,0-4.44.8-4.44,3.87,0,1.09.33,1.75,1.13,2.55l5.1,4.34c.4.43.4.5.4.83,0,1.06-1.13,1.66-2.19,1.66-1.56.03-2.25-.36-3.05-.53-.6-.13-1.39.4-1.39,1.09,0,.46.23.83.66.96,1.65.53,2.25.66,3.74.7,2.25.03,4.57-1.55,4.44-3.87m-15.97-10.23c.13-.89-.43-1.29-1.06-1.36-.53-.03-1.09.46-1.12.93l-.8,10.46-1.82-2.32c-.26-.33-.56-.56-.99-.56s-.7.2-.96.56l-1.95,2.42-.7-10.46c-.03-.43-.6-1.06-1.16-1.03-.76.07-1.13.7-1.09,1.29l.89,13.31c.03.5.56.86,1.09.86.43,0,.7-.2.96-.53l2.91-3.54,2.85,3.51c.26.33.56.56.99.56.36,0,.96-.3,1.03-.86l.93-13.24Zm-20.34,8.61c0,1.82-1.49,3.31-3.31,3.31s-3.31-1.49-3.31-3.31v-4.44c0-1.82,1.49-3.31,3.31-3.31s3.31,1.49,3.31,3.31v4.44Zm2.22,0v-4.44c0-3.05-2.48-5.53-5.53-5.53-3.01.03-5.4,2.52-5.53,5.53v4.44c0,3.05,2.48,5.53,5.53,5.53,3.01-.03,5.4-2.52,5.53-5.53m-18.4,4.4c0-.06.07-.7-.6-.99-.36-.13-.83-.46-1.16-.93-.36-.53-.46-.99-.46-1.39v-16.55c0-.6-.5-1.09-1.09-1.09h-4.2c-.56,0-1.19.6-.99,1.42.13.53.63.83,1.32.83h2.72l.03,15.4c0,.96.2,1.92.96,2.85.43.53.96,1.06,1.92,1.46.36.16,1.62.13,1.56-.99m-14.72-11.06c0-.6-.53-1.09-1.13-1.09h-7.71v-6.62h7.71c.6,0,1.13-.5,1.13-1.09s-.53-1.13-1.13-1.13h-8.81c-.33,0-.6,0-.86.23s-.26.53-.26.89v19.86c0,.6.53,1.09,1.13,1.09s1.09-.5,1.09-1.09v-9.93h7.71c.6,0,1.13-.53,1.13-1.13m-19.98,9.93h-5.53c-.96,0-1.09-1.26-1.09-2.19s.13-2.22,1.09-2.22h5.53v4.4Zm2.19,1.12v-9.93c0-1.33-.33-2.25-1.26-3.18-.93-.93-1.85-1.26-3.15-1.26h-4.4c-.6,0-1.13.53-1.13,1.13s.53,1.09,1.13,1.09h4.4c.66,0,1.09.16,1.56.63s.66.93.66,1.59v2.18h-5.53c-2.15,0-3.31,2.25-3.31,4.44s1.16,4.4,3.31,4.4h6.62c.36,0,.63-.1.86-.36.16-.23.23-.46.23-.73m-17.07-13.24c0-.6-.53-1.13-1.13-1.13h-4.17v-5.5c0-.6-.53-1.13-1.13-1.13s-1.09.53-1.09,1.13v5.5h-1.99c-.6,0-1.09.53-1.09,1.13s.5,1.09,1.09,1.09h1.99v12.15c0,.6.5,1.09,1.09,1.09s1.13-.5,1.13-1.09v-12.15h4.17c.6,0,1.13-.5,1.13-1.09m-19.65,12.12h-5.53c-.96,0-1.09-1.26-1.09-2.19s.13-2.22,1.09-2.22h5.53v4.4Zm2.19,1.12v-9.93c0-1.33-.33-2.25-1.26-3.18-.93-.93-1.85-1.26-3.15-1.26h-4.4c-.6,0-1.13.53-1.13,1.13s.53,1.09,1.13,1.09h4.4c.66,0,1.09.16,1.56.63.46.46.66.93.66,1.59v2.18h-5.53c-2.15,0-3.31,2.25-3.31,4.44s1.16,4.4,3.31,4.4h6.62c.36,0,.63-.1.86-.36.17-.23.23-.46.23-.73m-19.05-4.44c0,.96-.2,1.59-.86,2.32-.56.6-1.42.99-2.45.99h-4.44v-17.65l4.47-.03c.7,0,1.52.26,2.22.86.76.73,1.06,1.46,1.06,2.48v11.03Zm2.19,0v-11.03c0-1.82-.83-3.44-1.92-4.34-.93-.73-2.12-1.19-3.57-1.19h-5.53c-.3,0-.63.2-.76.3-.1.1-.33.16-.33.83v19.86c0,.3.03.46.26.73.2.27.46.36.83.36h5.53c1.72,0,3.24-.7,4.14-1.75.96-1.06,1.36-2.18,1.36-3.77"/><path class="cls-2" d="m189.76,41.81c0-.6-.5-1.12-1.09-1.12h-3.31c-.66,0-1.13-.13-1.59-.6-.46-.46-.63-.93-.63-1.59v-6.62c0-.66.17-1.13.63-1.59.46-.46.93-.63,1.59-.63h3.31c.6,0,1.09-.5,1.09-1.09s-.5-1.13-1.09-1.13h-3.31c-1.32,0-2.22.33-3.18,1.26-.93.96-1.26,1.85-1.26,3.18v6.62c0,1.32.26,2.22,1.22,3.18.96.93,1.89,1.22,3.21,1.22h3.31c.6,0,1.09-.5,1.09-1.09m-17.75,0v-13.24c0-.6-.5-1.13-1.09-1.13-.3,0-6.33.03-6.33.03-.56,0-1.19.6-.99,1.42.13.53.63.83,1.32.83h4.9v12.08c0,.6.5,1.09,1.09,1.09s1.09-.5,1.09-1.09m.3-19.86c0-1.89-2.78-1.89-2.78,0s2.78,1.85,2.78,0m-15.31,6.62c0-.6-.53-1.13-1.13-1.13h-4.17v-5.5c0-.6-.53-1.13-1.13-1.13s-1.09.53-1.09,1.13v5.5h-1.99c-.6,0-1.09.53-1.09,1.13s.5,1.09,1.09,1.09h1.99v12.15c0,.6.5,1.09,1.09,1.09s1.13-.5,1.13-1.09v-12.15h4.17c.6,0,1.13-.5,1.13-1.09m-17.7,13.24c0-.06.06-.7-.6-.99-.36-.13-.83-.46-1.16-.93-.36-.53-.46-.99-.46-1.39v-16.55c0-.6-.5-1.09-1.09-1.09h-4.2c-.56,0-1.19.6-.99,1.42.13.53.63.83,1.32.83h2.71l.03,15.4c0,.96.2,1.92.96,2.85.43.53.96,1.06,1.92,1.46.36.16,1.62.13,1.56-.99m-15.8-1.12h-5.53c-.96,0-1.09-1.26-1.09-2.19s.13-2.22,1.09-2.22h5.53v4.4Zm2.19,1.12v-9.93c0-1.33-.33-2.25-1.26-3.18-.93-.93-1.85-1.26-3.15-1.26h-4.4c-.6,0-1.13.53-1.13,1.13s.53,1.09,1.13,1.09h4.4c.66,0,1.09.16,1.56.63.46.46.66.93.66,1.59v2.18h-5.53c-2.15,0-3.31,2.25-3.31,4.44s1.16,4.4,3.31,4.4h6.62c.36,0,.63-.1.86-.36.16-.23.23-.46.23-.73m-18.89-5.53c0,2.15-1.16,4.4-3.31,4.4h-4.4v-8.81h4.4c2.15,0,3.31,2.25,3.31,4.4m-1.09-9.93c0,1.56-.66,3.31-2.22,3.31h-4.4v-6.62h4.4c1.55,0,2.22,1.76,2.22,3.31m3.31,9.97c.13-2.55-.7-4.37-2.71-5.99,1.16-1.19,1.59-2.32,1.59-3.97,0-2.75-1.65-5.53-4.4-5.53h-5.53c-.33,0-.53.1-.76.33-.23.26-.33.46-.33.8v19.86c0,.33,0,.6.27.86.23.23.5.23.83.23h5.53c3.34,0,5.33-3.24,5.53-6.59"/><path class="cls-1" d="m34.06,63.13c-.13-.14-.25-.29-.38-.43-8.77,1.48-17.61,2.98-26.35,4.48l2.78,2.78c1.48-.34,2.95-.67,4.45-1.03,6.46-2.74,12.98-4.68,19.5-5.8Z"/><path class="cls-1" d="m31.59,60.41c-.65-.19-1.3-.4-1.95-.65-.41-.16-.83-.34-1.24-.53-8.89.86-17.73,1.68-26.51,2.49l3.98,3.98c8.77-1.51,17.65-3.02,26.48-4.51-.25-.27-.5-.53-.75-.79Z"/><path class="cls-1" d="m20.8,54.74c-.72-.5-1.44-1-2.16-1.49-.16-.11-.32-.23-.49-.34-2.41.15-4.82.33-7.21.52l-10.95.85v2.96c6.88-1.26,13.76-2.09,20.62-2.48.06,0,.12,0,.18,0Z"/><path class="cls-1" d="m75.31,46.74c.97.44,1.96.87,2.94,1.3v-1.52c-.31.02-.62.05-.93.07-.68.05-1.35.1-2.02.15Z"/><path class="cls-1" d="m15.88,51.34c-2.71-1.83-5.47-3.53-8.24-4.6-2.54-.97-5.1-1.42-7.65-1.48v7.29l10.93-.85c1.64-.13,3.3-.25,4.95-.37Z"/><path class="cls-1" d="m68.37,43.55c3.09.18,6.44.42,9.88.67v-1.77c-4.77-.23-9.57-.47-14.36-.9,1.45.62,2.94,1.3,4.48,2Z"/><path class="cls-1" d="m23.32,56.41c-.87-.03-1.76,0-2.68.06-6.86.39-13.75,1.22-20.63,2.48v.9l.31.31c8.36-.77,16.8-1.56,25.26-2.37-.76-.43-1.51-.9-2.26-1.38Z"/><path class="cls-1" d="m0,11.21v5.07c3.17-.33,6.35-.66,9.52-.99-3.12-2.11-6.31-3.35-9.52-4.08Z"/><path class="cls-1" d="m18.25,51.19c8.72-.54,17.59-.61,26.32,1.55,2.53.62,5.11,1.45,7.67,2.33,2.09-.23,4.18-.45,6.27-.68.18-.07.37-.14.55-.21,1.88-.73,3.76-1.46,5.63-2.14,3.69-1.33,7.39-2.42,11.1-3.33-1.27-.57-2.53-1.15-3.77-1.72-4.78.33-9.28.56-13.25.45l-2.37-.06c-7.92-.17-16.1-.36-23.74-6.31-1.25-.98-2.5-2.12-3.72-3.23-1.06-.97-2.13-1.95-3.23-2.83-4.73-.27-9.46-.32-14.19-.2-3.85.55-7.7,1.22-11.52,1.95v6.8c2.58.06,5.17.51,7.75,1.5,3.56,1.36,7.08,3.76,10.49,6.14Z"/><path class="cls-1" d="m42.47,26.38c-1.48-1.1-2.95-2.46-4.37-3.77-1.93-1.79-3.93-3.64-5.97-4.84-4.5-2.65-9.21-2.16-13.76-1.69-1.64.17-3.28.34-4.92.51,1.37,1.2,2.73,2.48,4.06,3.74,1.68,1.6,3.43,3.26,5.16,4.69,4.87,4.02,10.01,6.95,15.32,9.11.83.15,1.65.29,2.47.41,4.9.67,10.65,1.35,16.72,2.07,6.63.79,13.83,1.64,21.04,2.61v-4.35c-5.02-1.94-10.27-3.37-15.97-3.47-6.57-.12-13.36-.23-19.8-5.03Z"/><path class="cls-1" d="m11.64,15.07c2.24-.23,4.48-.47,6.72-.7,4.6-.48,9.35-.97,13.95,1.74,2.07,1.22,4.09,3.09,6.05,4.9,1.41,1.3,2.87,2.65,4.32,3.73,6.35,4.72,13.09,4.84,19.61,4.96,5.7.1,10.95,1.52,15.97,3.45v-14.74L59.85,0H0v9.48c3.34.75,6.67,2.04,9.92,4.3.58.4,1.15.84,1.72,1.29Z"/><path class="cls-1" d="m0,28.76v2.76c3.76-.63,7.52-1.16,11.27-1.56-3.75-.58-7.51-.97-11.27-1.2Z"/><path class="cls-1" d="m19.41,32.14c.4-.04.79-.07,1.19-.1-2.87-.92-5.81-.75-9.02-.41-3.86.41-7.72.96-11.59,1.62v.45c3.82-.3,7.65-.52,11.48-.62,2.65-.38,5.3-.7,7.94-.94Z"/><path class="cls-1" d="m27.02,31.62c1.44.37,2.89.74,4.36,1.1-3.05-1.69-6.02-3.68-8.9-6.06-1.75-1.45-3.5-3.11-5.19-4.72-1.87-1.78-3.79-3.6-5.73-5.15-3.84.4-7.7.8-11.55,1.21v9.04c6.97.42,13.93,1.43,20.86,3.04,2.05.48,4.11,1.01,6.16,1.54Z"/><path class="cls-1" d="m44.5,54.44c-7.94-1.96-16-2.07-23.96-1.66.95.66,1.91,1.3,2.87,1.92,1.76.06,3.43.38,5.07,1.34.61.35,1.2.8,1.79,1.3,5.98-.59,11.98-1.2,17.99-1.84-1.26-.39-2.51-.75-3.76-1.05Z"/><path class="cls-1" d="m33.81,60.95s.06,0,.1-.02c-.04,0-.09-.01-.13-.02.01.01.02.03.03.04Z"/><path class="cls-1" d="m70.67,54.68c-4.03.49-8.06.96-12.08,1.42-.55.22-1.11.43-1.66.64.19.07.37.14.55.2,4.42-.75,8.82-1.51,13.19-2.26Z"/><path class="cls-1" d="m35.13,62.45c.12.14.25.28.37.42,1.7-.26,3.46-.47,5.25-.5,1.31-.34,2.62-.68,3.93-1.01,1.99-.51,3.99-1.03,5.98-1.54-4.63.78-9.26,1.57-13.86,2.34-.56.09-1.12.19-1.67.28Z"/><path class="cls-1" d="m78.25,51.99v-2.12c-4.38.96-8.75,2.2-13.09,3.75,4.36-.51,8.73-1.07,13.09-1.62Z"/><path class="cls-1" d="m63.23,76.28c-.06,0-.13,0-.2,0-8.75-.14-18.01-1.49-26.43-10.31-.2-.21-.4-.43-.6-.65-7.18,1.84-14.36,3.65-21.36,5.31-.89.38-1.78.79-2.67,1.19l6.43,6.43h59.85v-7.1c-5.66,3.03-10.91,5.12-15.02,5.12Z"/><path class="cls-1" d="m52.04,56.81c-6.61.71-13.21,1.4-19.79,2.04,6.55,1.68,13.21.23,19.79-2.04Z"/><path class="cls-1" d="m39.32,39.97c5.53,3.53,11.34,3.37,16.96,3.21,1.98-.06,4.62,0,7.67.14-1.78-.77-3.49-1.46-5.09-2.01-.49-.17-.98-.34-1.47-.5-6.06-.84-12.05-2.15-17.85-4.32-1.94-.32-3.89-.57-5.83-.79.61.47,1.21.95,1.81,1.43,1.24,1,2.53,2.03,3.81,2.85Z"/><path class="cls-1" d="m62.11,58.64c5.37,1.92,10.79,3.59,16.14,4.1v-7.65c-1.95.34-3.89.68-5.86,1.02-3.39.81-6.83,1.66-10.28,2.53Z"/><path class="cls-1" d="m75.71,40.61c-6.37-.83-12.66-1.58-18.53-2.27-1.23-.14-2.44-.29-3.64-.43,1.31.38,2.61.77,3.91,1.2,6.05.84,12.17,1.2,18.26,1.51Z"/><path class="cls-1" d="m57,69.42c-1.01-.47-2.01-.98-3.02-1.49-2.49-1.25-5.05-2.55-7.61-3.22-1.88-.49-3.75-.65-5.59-.62-1.11.29-2.22.57-3.34.86,8.15,8.18,17.11,9.47,25.59,9.61.06,0,.13,0,.19,0,4.09,0,9.35-2.11,15.02-5.16v-.87c-7.06,3.03-14.17,4.19-21.25.89Z"/><path class="cls-1" d="m45.66,62.84c.26.06.52.1.79.17,2.59.68,5.17,1.98,7.67,3.25,1,.51,2.01,1.01,3.01,1.48,7.02,3.27,14.1,2.08,21.12-.96v-2.3c-6.3-.6-12.67-2.82-18.96-5.13-4.54,1.15-9.1,2.32-13.63,3.49Z"/><path class="cls-1" d="m56.29,44.9c-5.66.16-11.52.33-17.14-3.26-1.3-.83-2.59-1.87-3.85-2.88-1.54-1.24-3.14-2.5-4.74-3.39-.85-.08-1.7-.14-2.55-.2.39.35.78.7,1.17,1.05,1.2,1.1,2.45,2.24,3.68,3.2,7.54,5.88,15.68,6.06,23.54,6.23l2.37.06c3.05.09,6.42-.03,9.98-.24-.15-.07-.3-.14-.44-.2-4.92-.29-9.16-.45-12.02-.37Z"/><path class="cls-4" d="m36.01,65.32c.2.22.4.44.6.65,8.41,8.82,17.67,10.17,26.43,10.31.06,0,.13,0,.2,0,4.11,0,9.37-2.1,15.02-5.12v-1.75c-5.67,3.04-10.93,5.16-15.02,5.16-.06,0-.13,0-.19,0-8.48-.14-17.44-1.44-25.59-9.61,1.11-.29,2.22-.57,3.34-.86,1.84-.03,3.71.13,5.59.62,2.55.67,5.12,1.97,7.61,3.22,1.01.51,2.01,1.02,3.02,1.49,7.08,3.3,14.2,2.14,21.25-.89v-1.76c-7.03,3.04-14.1,4.23-21.12.96-1-.47-2.01-.98-3.01-1.48-2.5-1.26-5.08-2.57-7.67-3.25-.26-.07-.52-.12-.79-.17,4.54-1.17,9.1-2.34,13.63-3.49,6.29,2.31,12.66,4.53,18.96,5.13v-1.74c-5.35-.51-10.77-2.19-16.14-4.1,3.46-.87,6.89-1.72,10.28-2.53,1.96-.34,3.91-.68,5.86-1.02v-3.1c-4.36.56-8.73,1.11-13.09,1.62,4.35-1.55,8.71-2.79,13.09-3.75v-1.82c-.99-.43-1.97-.86-2.94-1.3.67-.05,1.34-.1,2.02-.15.31-.02.62-.04.93-.07v-2.3c-3.44-.25-6.79-.48-9.88-.67-1.53-.7-3.03-1.38-4.48-2,4.79.44,9.59.67,14.36.9v-3.22c-7.21-.97-14.4-1.82-21.04-2.61-6.08-.72-11.82-1.4-16.72-2.07-.82-.11-1.65-.26-2.47-.41-5.31-2.16-10.46-5.09-15.32-9.11-1.74-1.44-3.48-3.09-5.16-4.69-1.33-1.27-2.69-2.54-4.06-3.74,1.64-.17,3.28-.34,4.92-.51,4.55-.47,9.25-.96,13.76,1.69,2.03,1.19,4.03,3.05,5.97,4.84,1.42,1.31,2.89,2.67,4.37,3.77,6.44,4.79,13.24,4.91,19.8,5.03,5.7.1,10.95,1.53,15.97,3.47v-1.74c-5.02-1.93-10.26-3.35-15.97-3.45-6.52-.12-13.26-.23-19.61-4.96-1.46-1.08-2.91-2.43-4.32-3.73-1.95-1.81-3.98-3.68-6.05-4.9-4.6-2.7-9.35-2.21-13.95-1.74-2.24.23-4.48.46-6.72.7-.57-.45-1.14-.89-1.72-1.29-3.25-2.25-6.58-3.54-9.92-4.3v1.73c3.21.73,6.4,1.96,9.52,4.08-3.17.33-6.34.66-9.52.99v1.72c3.85-.41,7.71-.81,11.55-1.21,1.94,1.55,3.86,3.37,5.73,5.15,1.69,1.61,3.44,3.27,5.19,4.72,2.88,2.38,5.86,4.37,8.9,6.06-1.46-.36-2.92-.73-4.36-1.1-2.05-.53-4.1-1.06-6.16-1.54-6.93-1.61-13.89-2.62-20.86-3.04v1.73c3.76.23,7.52.62,11.27,1.2-3.75.41-7.51.93-11.27,1.56v1.73c3.87-.66,7.73-1.21,11.59-1.62,3.21-.34,6.15-.52,9.02.41-.4.03-.79.06-1.19.1-2.64.24-5.29.56-7.94.94-3.83.1-7.65.32-11.48.62v3.04c3.83-.73,7.68-1.4,11.52-1.95,4.73-.12,9.46-.07,14.19.2,1.09.88,2.17,1.86,3.23,2.83,1.21,1.11,2.46,2.25,3.72,3.23,7.64,5.95,15.83,6.14,23.74,6.31l2.37.06c3.97.12,8.47-.11,13.25-.45,1.24.57,2.5,1.15,3.77,1.72-3.71.91-7.41,2-11.1,3.33-1.87.68-3.75,1.41-5.63,2.14-.18.07-.37.14-.55.21-2.09.24-4.18.45-6.27.68-2.57-.89-5.14-1.71-7.67-2.33-8.74-2.16-17.61-2.09-26.32-1.55-3.42-2.38-6.93-4.77-10.49-6.14-2.58-.99-5.17-1.45-7.75-1.5v1.72c2.55.06,5.1.51,7.65,1.48,2.77,1.06,5.53,2.77,8.24,4.6-1.66.12-3.31.24-4.95.37l-10.93.85v1.72l10.95-.85c2.39-.19,4.79-.36,7.21-.52.16.11.33.23.49.34.71.5,1.44,1,2.16,1.49-.06,0-.12,0-.18,0-6.86.39-13.74,1.22-20.62,2.48v1.72c6.88-1.26,13.77-2.09,20.63-2.48.92-.05,1.82-.08,2.68-.06.75.48,1.5.94,2.26,1.38-8.47.81-16.9,1.6-25.26,2.37l1.57,1.57c8.78-.81,17.62-1.63,26.51-2.49.41.19.82.37,1.24.53.65.25,1.3.47,1.95.65.25.26.5.52.75.79-8.82,1.49-17.7,3-26.48,4.51l1.47,1.47c8.74-1.5,17.58-3,26.35-4.48.13.14.25.29.38.43-6.52,1.12-13.04,3.06-19.5,5.8-1.5.36-2.97.69-4.45,1.03l1.87,1.87c.89-.41,1.78-.82,2.67-1.19,7.01-1.66,14.18-3.47,21.36-5.31Zm21.17-26.99c5.86.7,12.16,1.44,18.53,2.27-6.08-.3-12.2-.67-18.26-1.51-1.3-.43-2.61-.82-3.91-1.2,1.2.14,2.41.29,3.64.43Zm-17.64-1.84c5.8,2.18,11.79,3.48,17.85,4.32.49.16.98.33,1.47.5,1.6.55,3.31,1.24,5.09,2.01-3.06-.14-5.69-.2-7.67-.14-5.62.16-11.43.33-16.96-3.21-1.28-.82-2.56-1.85-3.81-2.85-.6-.48-1.2-.96-1.81-1.43,1.94.23,3.89.48,5.83.79Zm19.24,9.22l-2.37-.06c-7.87-.18-16-.36-23.54-6.23-1.24-.97-2.48-2.1-3.68-3.2-.39-.35-.78-.7-1.17-1.05.85.06,1.7.12,2.55.2,1.61.89,3.2,2.15,4.74,3.39,1.25,1.01,2.55,2.05,3.85,2.88,5.62,3.59,11.47,3.42,17.14,3.26,2.86-.08,7.11.09,12.02.37.15.07.3.14.44.2-3.56.21-6.93.33-9.98.24Zm-.19,10.39c4.02-.45,8.05-.93,12.08-1.42-4.37.76-8.78,1.51-13.19,2.26-.18-.07-.37-.14-.55-.2.56-.22,1.11-.43,1.66-.64Zm-13.9,5.26c-1.31.34-2.62.67-3.93,1.01-1.79.03-3.55.24-5.25.5-.13-.14-.25-.28-.37-.42.56-.09,1.12-.19,1.67-.28,4.6-.78,9.23-1.56,13.86-2.34-2,.51-3.99,1.03-5.98,1.54Zm-14.42-4.03c-.59-.5-1.18-.95-1.79-1.3-1.64-.96-3.31-1.27-5.07-1.34-.96-.62-1.92-1.26-2.87-1.92,7.96-.4,16.02-.3,23.96,1.66,1.25.31,2.5.67,3.76,1.05-6.01.64-12.01,1.25-17.99,1.84Zm3.54,3.62s-.02-.02-.03-.04c.04,0,.09.01.13.02-.03,0-.06,0-.1.02Zm-1.56-2.1c6.58-.65,13.18-1.33,19.79-2.04-6.57,2.27-13.23,3.73-19.79,2.04Z"/><rect class="cls-6" x="96.85" y="93.48" width="147.72" height=".43"/><rect class="cls-4" x="96.85" y="107.51" width="49.11" height="32.6"/><rect class="cls-7" x="96.85" y="107.51" width="49.11" height="32.6"/><polygon class="cls-5" points="120.35 114.61 121.39 113.86 122.43 114.61 122.03 113.39 123.09 112.63 121.79 112.63 121.39 111.39 120.99 112.63 119.69 112.63 120.74 113.39 120.35 114.61"/><polygon class="cls-5" points="114.98 116.06 116.01 115.3 117.05 116.06 116.66 114.83 117.71 114.07 116.41 114.07 116.01 112.83 115.62 114.08 114.32 114.07 115.37 114.83 114.98 116.06"/><polygon class="cls-5" points="112.08 116.77 111.68 118.02 110.38 118.02 111.44 118.77 111.04 120 112.08 119.24 113.12 120 112.73 118.77 113.78 118.02 112.48 118.02 112.08 116.77"/><polygon class="cls-5" points="110.64 124.61 111.68 125.37 111.28 124.14 112.34 123.38 111.04 123.38 110.64 122.14 110.24 123.39 108.94 123.38 110 124.14 109.6 125.37 110.64 124.61"/><polygon class="cls-5" points="112.48 128.77 112.08 127.53 111.68 128.77 110.38 128.77 111.44 129.52 111.04 130.75 112.08 129.99 113.12 130.75 112.72 129.52 113.78 128.77 112.48 128.77"/><polygon class="cls-5" points="116.42 132.71 116.02 131.47 115.62 132.71 114.32 132.71 115.38 133.46 114.98 134.69 116.02 133.93 117.06 134.69 116.67 133.46 117.72 132.71 116.42 132.71"/><polygon class="cls-5" points="121.79 134.13 121.39 132.89 120.99 134.14 119.69 134.13 120.75 134.89 120.35 136.12 121.39 135.36 122.43 136.12 122.03 134.89 123.09 134.13 121.79 134.13"/><polygon class="cls-5" points="127.15 132.71 126.76 131.47 126.36 132.71 125.06 132.71 126.11 133.46 125.72 134.69 126.76 133.93 127.8 134.69 127.4 133.46 128.45 132.71 127.15 132.71"/><polygon class="cls-5" points="131.1 128.77 130.7 127.53 130.3 128.77 129 128.77 130.05 129.52 129.66 130.75 130.7 129.99 131.74 130.75 131.34 129.52 132.39 128.77 131.1 128.77"/><polygon class="cls-5" points="133.82 123.37 132.52 123.37 132.12 122.13 131.73 123.37 130.43 123.37 131.48 124.13 131.09 125.35 132.12 124.59 133.16 125.35 132.77 124.13 133.82 123.37"/><polygon class="cls-5" points="129.66 119.98 130.7 119.23 131.73 119.98 131.34 118.76 132.39 118 131.09 118 130.7 116.76 130.3 118 129 118 130.05 118.76 129.66 119.98"/><polygon class="cls-5" points="126.77 112.83 126.38 114.08 125.08 114.07 126.13 114.83 125.73 116.06 126.77 115.3 127.81 116.06 127.42 114.83 128.47 114.07 127.17 114.07 126.77 112.83"/><path class="cls-8" d="m231.02,132.72c0-.54-.12-.95-.37-1.23-.24-.28-.58-.43-1.01-.43-.24,0-.46.05-.68.16-.22.11-.43.26-.65.45v-.49h-.74v4.38h.74v-3.27c.19-.16.38-.28.57-.38.19-.1.38-.15.57-.15s.33.03.44.08c.11.05.19.14.25.25.06.1.09.24.11.42.02.17.03.36.03.56v2.5h.74v-2.85Zm-5.2,1.91c-.21.28-.5.42-.88.42s-.68-.14-.89-.43c-.21-.28-.31-.7-.31-1.25s.11-.99.31-1.27c.21-.28.51-.41.89-.41s.68.14.88.41c.21.28.31.7.31,1.27s-.1.98-.31,1.26m.54-2.97c-.36-.4-.83-.61-1.42-.61s-1.06.2-1.42.61c-.36.41-.54.97-.54,1.71s.17,1.27.52,1.69c.35.42.83.62,1.44.62s1.07-.2,1.42-.6c.36-.4.53-.97.53-1.71s-.18-1.31-.53-1.71m-4.02-1.98h-.84v.77h.84v-.77Zm-.05,1.5h-.74v4.38h.74v-4.38Zm-1.71,1.54c0-.54-.12-.95-.36-1.23-.24-.28-.58-.43-1.01-.43-.24,0-.46.05-.68.16-.22.11-.43.26-.65.45v-.49h-.74v4.38h.74v-3.27c.19-.16.38-.28.57-.38.19-.1.38-.15.57-.15s.33.03.44.08c.11.05.19.14.25.25.06.1.09.24.11.42.02.17.03.36.03.56v2.5h.74v-2.85Zm-5.63,2.83c.25-.09.46-.22.65-.41.21-.2.35-.45.43-.74.08-.29.12-.64.12-1.05v-3.64h-.78v3.66c0,.26-.02.48-.05.66-.04.18-.1.35-.2.49-.11.16-.25.28-.44.36-.19.08-.4.12-.65.12-.26,0-.48-.04-.66-.12-.18-.08-.32-.2-.43-.36-.1-.15-.17-.31-.2-.5-.03-.18-.05-.41-.05-.68v-3.64h-.78v3.64c0,.42.04.77.13,1.05.08.28.23.53.43.73.18.18.4.31.66.4.26.09.56.13.9.13.36,0,.66-.04.91-.13m-6.39-2.83c0-.54-.12-.95-.36-1.23-.24-.28-.58-.43-1.01-.43-.24,0-.47.05-.68.16-.21.11-.43.26-.65.45v-.49h-.74v4.38h.74v-3.27c.19-.16.38-.28.57-.38.19-.1.38-.15.57-.15s.33.03.44.08c.11.05.19.14.25.25.06.1.09.24.11.42.02.17.03.36.03.56v2.5h.74v-2.85Zm-5.13,2.85h.73v-3c0-.27-.04-.51-.12-.7-.08-.19-.2-.35-.36-.47-.16-.12-.35-.21-.56-.25-.21-.05-.46-.07-.76-.07-.25,0-.5.02-.75.07-.25.05-.45.09-.58.13v.75h.04c.23-.1.46-.17.69-.22.23-.05.43-.08.6-.08.14,0,.28.01.42.03.14.02.25.06.34.12.09.06.17.14.22.24.05.11.08.24.08.42v.14c-.39.02-.75.05-1.08.1-.33.04-.63.12-.87.23-.28.13-.48.29-.61.51-.13.21-.19.47-.19.77,0,.2.03.38.11.56.07.18.17.32.28.44.12.12.27.22.43.29.16.07.33.1.51.1.22,0,.39-.02.51-.06.12-.04.25-.09.38-.16.09-.05.19-.11.29-.19.1-.08.18-.14.24-.19v.47Zm-.53-.71c-.19.1-.4.15-.63.15-.27,0-.48-.06-.62-.19-.14-.13-.21-.32-.21-.57,0-.22.06-.39.19-.52.13-.12.29-.22.49-.28.16-.05.38-.09.65-.12.27-.03.49-.05.67-.06v1.22c-.17.15-.34.27-.53.37m-5.62-1.97c.02-.19.05-.35.11-.49.06-.14.14-.27.25-.38.11-.11.24-.2.37-.26.14-.06.3-.09.5-.09s.37.03.5.09c.13.06.24.14.33.25.08.1.14.22.18.36.04.14.07.32.07.52h-2.32Zm1.9,2.75c.12-.02.25-.05.39-.09.1-.03.22-.07.34-.12.13-.05.24-.09.32-.13v-.81h-.04c-.06.05-.14.1-.23.16-.09.06-.21.11-.34.17-.13.06-.27.11-.42.14-.16.04-.31.06-.48.06-.45,0-.81-.14-1.06-.41-.26-.27-.38-.66-.38-1.17h3.04v-.4c0-.35-.04-.65-.12-.89-.08-.24-.21-.45-.36-.61s-.34-.29-.55-.37c-.21-.08-.45-.12-.72-.12-.6,0-1.09.21-1.47.63s-.56.99-.56,1.71.19,1.28.58,1.68c.39.39.93.59,1.63.59.18,0,.33-.01.44-.03m-4.11-1.07c-.21.28-.51.42-.89.42-.18,0-.34-.02-.47-.05-.14-.03-.3-.1-.5-.19v-2.48c.18-.15.36-.27.56-.36.19-.09.4-.14.61-.14.36,0,.62.14.78.41.16.28.24.66.24,1.16,0,.54-.11.95-.32,1.23m.66-2.91c-.28-.4-.67-.6-1.17-.6-.27,0-.51.06-.73.17-.22.11-.43.25-.61.41v-.46h-.74v6h.74v-1.84c.18.11.35.18.52.23.17.05.36.08.58.08.53,0,.97-.22,1.32-.65.35-.43.52-1.01.52-1.74,0-.67-.14-1.2-.42-1.6m-5,2.98c-.21.28-.5.42-.88.42s-.68-.14-.89-.43c-.21-.28-.31-.7-.31-1.25s.1-.99.31-1.27c.21-.28.5-.41.89-.41s.68.14.88.41c.21.28.31.7.31,1.27s-.11.98-.31,1.26m.54-2.97c-.36-.4-.83-.61-1.42-.61s-1.06.2-1.42.61c-.36.41-.54.97-.54,1.71s.18,1.27.52,1.69c.35.42.83.62,1.44.62s1.06-.2,1.42-.6c.36-.4.53-.97.53-1.71s-.18-1.31-.53-1.71m-3.53-.46s-.09-.01-.13-.02c-.04,0-.09,0-.17,0-.19,0-.38.05-.58.15-.2.1-.43.27-.7.51v-.65h-.74v4.38h.74v-3.11c.18-.17.36-.3.56-.38.2-.09.39-.13.59-.13.09,0,.16,0,.22,0,.06,0,.12.01.17.03h.04v-.77Zm-3.31-.02h-.74v3.27c-.17.15-.36.27-.56.38-.21.1-.4.15-.58.15-.19,0-.34-.03-.44-.08-.1-.05-.18-.13-.24-.25-.06-.12-.1-.25-.12-.4-.02-.15-.03-.35-.03-.58v-2.5h-.74v2.85c0,.29.03.55.1.75.07.21.17.38.29.51.13.13.27.23.44.3.17.06.35.09.54.09.25,0,.48-.05.68-.16.2-.1.42-.25.65-.45v.49h.74v-4.38Zm-4.13,4.38v-.69h-2.88v-2.17h2.68v-.69h-2.68v-1.6h2.88v-.69h-3.65v5.84h3.65Zm-9.85-2.68c.02-.19.05-.35.11-.49.06-.14.14-.27.25-.38.11-.11.24-.2.38-.26.14-.06.3-.09.5-.09s.37.03.5.09c.13.06.24.14.33.25.08.1.14.22.18.36.04.14.07.32.07.52h-2.32Zm1.9,2.75c.12-.02.25-.05.39-.09.1-.03.22-.07.34-.12.13-.05.23-.09.32-.13v-.81h-.04c-.06.05-.14.1-.23.16-.09.06-.2.11-.34.17-.13.06-.27.11-.42.14-.16.04-.31.06-.48.06-.45,0-.81-.14-1.06-.41-.26-.27-.38-.66-.38-1.17h3.04v-.4c0-.35-.04-.65-.13-.89-.08-.24-.2-.45-.36-.61s-.34-.29-.55-.37c-.21-.08-.45-.12-.72-.12-.61,0-1.09.21-1.47.63-.37.42-.56.99-.56,1.71s.19,1.28.58,1.68c.39.39.93.59,1.63.59.18,0,.33-.01.44-.03m-3.3-2.92c0-.54-.12-.95-.36-1.23-.24-.28-.58-.43-1.01-.43-.24,0-.46.05-.68.16-.21.11-.43.26-.65.45v-2.21h-.74v6.11h.74v-3.27c.19-.16.38-.28.57-.38.19-.1.38-.15.57-.15s.33.03.44.08.19.14.25.25c.06.1.09.24.11.42.02.17.03.36.03.56v2.5h.74v-2.85Zm-4.33,2.9c.14-.02.28-.05.42-.09v-.66h-.04c-.05.02-.13.05-.24.09-.11.03-.23.05-.35.05-.17,0-.3-.02-.4-.07-.1-.04-.17-.11-.22-.21-.05-.11-.08-.22-.09-.34,0-.12-.01-.29-.01-.51v-2.08h1.36v-.61h-1.36v-1.26h-.74v1.26h-.5v.61h.5v2.43c0,.49.11.86.34,1.09.22.23.54.34.94.34.12,0,.25-.01.39-.03m-4.32-6.13c-.11-.02-.23-.03-.36-.05-.13-.01-.26-.02-.4-.02-.47,0-.84.14-1.09.41-.25.28-.38.68-.38,1.21v.14h-.5v.61h.5v3.77h.74v-3.77h1.2v-.61h-1.22v-.15c0-.37.07-.62.2-.76.13-.14.35-.21.66-.21.1,0,.21.01.33.03.12.02.22.04.28.07h.04v-.68Zm-4.06,5.14c-.21.28-.5.42-.88.42s-.68-.14-.89-.43c-.21-.28-.31-.7-.31-1.25s.1-.99.31-1.27c.21-.28.5-.41.89-.41s.68.14.88.41c.21.28.31.7.31,1.27s-.1.98-.31,1.26m.54-2.97c-.36-.4-.83-.61-1.42-.61s-1.06.2-1.42.61c-.36.41-.54.97-.54,1.71s.17,1.27.52,1.69c.35.42.83.62,1.44.62s1.07-.2,1.42-.6c.36-.4.53-.97.53-1.71s-.18-1.31-.53-1.71"/><path class="cls-8" d="m243.8,122.14l-1.19,3.25-1.2-3.25h-.8l1.59,4.17-.78,1.83h.79l2.36-6h-.77Zm-3.49,4.44c.14-.02.28-.05.42-.09v-.66h-.04c-.05.02-.13.05-.24.09-.11.04-.23.05-.35.05-.17,0-.31-.02-.4-.07-.1-.04-.17-.11-.22-.21-.05-.11-.08-.22-.09-.34,0-.12-.01-.29-.01-.51v-2.08h1.36v-.61h-1.36v-1.26h-.74v1.26h-.5v.61h.5v2.43c0,.49.11.86.34,1.09.23.23.54.34.94.34.12,0,.25-.01.39-.03m-2.69-5.93h-.84v.77h.84v-.77Zm-.05,1.5h-.74v4.38h.74v-4.38Zm-1.76-1.72h-.74v6.11h.74v-6.11Zm-1.71.22h-.84v.77h.84v-.77Zm-.05,1.5h-.74v4.38h.74v-4.38Zm-2.25,4.45c.1-.02.21-.05.34-.08.09-.02.19-.06.3-.11.11-.05.2-.09.27-.12v-.83h-.04c-.17.16-.36.28-.58.38-.22.1-.44.15-.69.15-.4,0-.71-.14-.93-.43-.22-.29-.34-.69-.34-1.21s.12-.94.35-1.23c.23-.29.54-.43.92-.43.13,0,.26.02.4.06.14.04.26.08.36.14.12.06.22.12.3.18.08.06.15.11.2.15h.04v-.83c-.18-.09-.37-.17-.6-.24-.22-.07-.46-.1-.7-.1-.3,0-.57.05-.83.16-.26.1-.47.25-.65.44-.17.19-.31.43-.41.71-.1.28-.16.61-.16,1s.05.72.15,1.01c.1.29.24.52.42.71.18.19.4.33.65.42.25.09.53.14.83.14.16,0,.28,0,.38-.03m-3.82-.07h.73v-3c0-.27-.04-.51-.12-.7-.08-.19-.2-.35-.36-.47-.16-.12-.35-.21-.56-.25-.21-.05-.46-.07-.76-.07-.25,0-.5.02-.75.07-.25.05-.45.09-.58.13v.75h.04c.23-.1.46-.17.69-.22.23-.05.43-.08.6-.08.14,0,.28.01.42.03.14.02.25.06.34.12.09.06.17.14.22.24.05.11.08.24.08.42v.14c-.39.02-.75.05-1.08.1-.33.04-.63.12-.87.23-.28.13-.48.29-.61.51-.13.21-.19.47-.19.77,0,.2.03.38.11.56.07.18.17.32.28.44.12.12.27.22.43.29.16.07.33.1.51.1.22,0,.39-.02.51-.06.12-.04.25-.09.38-.16.09-.05.19-.11.29-.19.1-.08.18-.14.24-.19v.47Zm-.53-.71c-.19.1-.4.15-.63.15-.27,0-.48-.06-.62-.19-.14-.13-.21-.32-.21-.57,0-.22.06-.39.19-.52.13-.12.29-.22.49-.28.16-.05.38-.09.65-.12.27-.03.49-.05.67-.07v1.22c-.17.15-.34.27-.53.37m-2.11-5.13h-3.5v5.84h.78v-2.81h2.61v-.69h-2.61v-1.65h2.72v-.69Zm-9.69,3.16c.02-.19.05-.35.11-.49.06-.14.14-.27.25-.38.11-.11.24-.2.38-.26.14-.06.3-.09.5-.09s.37.03.5.09c.13.06.24.14.33.25.08.1.14.22.18.36.04.14.07.32.07.52h-2.32Zm1.9,2.75c.12-.02.25-.05.39-.09.1-.03.22-.07.34-.12.13-.05.23-.09.32-.13v-.81h-.04c-.06.05-.13.1-.23.16-.09.06-.2.11-.34.17-.13.06-.27.11-.42.14-.16.04-.31.06-.48.06-.45,0-.81-.14-1.06-.41s-.38-.66-.38-1.17h3.04v-.4c0-.35-.04-.65-.13-.89-.08-.24-.2-.45-.36-.61-.16-.17-.34-.29-.55-.37-.21-.08-.45-.12-.72-.12-.61,0-1.09.21-1.47.63-.37.42-.56.99-.56,1.71s.19,1.28.58,1.68c.39.39.93.59,1.63.59.18,0,.33-.01.44-.03m-4.11-1.07c-.21.28-.51.42-.89.42-.18,0-.33-.02-.47-.05-.14-.03-.3-.1-.5-.19v-2.48c.18-.15.36-.27.56-.36.19-.09.4-.14.61-.14.36,0,.62.14.78.41.16.28.24.66.24,1.16,0,.54-.11.95-.32,1.23m.66-2.91c-.28-.4-.67-.6-1.18-.6-.26,0-.51.06-.73.17-.22.11-.43.25-.61.41v-.46h-.74v6h.74v-1.84c.18.11.35.18.51.23.17.05.36.08.58.08.53,0,.97-.22,1.32-.65.35-.43.52-1.01.52-1.74,0-.67-.14-1.2-.42-1.6m-5,2.98c-.21.28-.5.42-.88.42s-.68-.14-.89-.43c-.21-.28-.31-.7-.31-1.25s.1-.99.31-1.27c.21-.28.51-.41.89-.41s.68.14.88.41c.21.28.31.7.31,1.27s-.11.98-.31,1.26m.54-2.97c-.36-.4-.83-.61-1.42-.61s-1.06.2-1.42.61c-.36.41-.54.97-.54,1.71s.17,1.27.52,1.69c.35.42.83.62,1.44.62s1.06-.2,1.42-.6c.36-.4.53-.97.53-1.71s-.18-1.31-.53-1.71m-3.53-.46s-.09-.01-.13-.02c-.04,0-.09,0-.17,0-.19,0-.38.05-.58.15-.2.1-.43.27-.7.51v-.65h-.74v4.38h.74v-3.11c.17-.17.36-.3.56-.38.2-.09.39-.13.59-.13.09,0,.16,0,.22,0,.06,0,.12.01.17.03h.04v-.77Zm-3.31-.02h-.74v3.27c-.17.15-.36.27-.56.38-.21.1-.4.15-.58.15-.19,0-.34-.03-.44-.08-.1-.05-.19-.13-.24-.25-.06-.12-.1-.25-.12-.4-.02-.15-.02-.35-.02-.58v-2.5h-.74v2.85c0,.29.03.55.1.75.07.21.17.38.29.51.13.13.27.23.44.3.17.06.35.09.54.09.25,0,.48-.05.68-.16.21-.1.42-.25.65-.45v.49h.74v-4.38Zm-4.13,4.38v-.69h-2.88v-2.17h2.68v-.69h-2.68v-1.6h2.88v-.69h-3.65v5.84h3.65Zm-10.39.7v.77c.19.06.4.1.63.14.22.03.44.05.66.05.67,0,1.16-.17,1.49-.52.32-.35.49-.89.49-1.63v-3.89h-.69l-.04.19c-.17-.1-.33-.18-.5-.23-.17-.05-.36-.08-.59-.08-.24,0-.47.05-.7.15-.23.1-.42.25-.58.44-.17.2-.31.43-.41.72-.1.28-.15.6-.15.97,0,.7.15,1.23.44,1.6.3.37.69.56,1.19.56.29,0,.53-.04.72-.12.19-.08.38-.21.58-.38v.38c0,.18-.02.34-.05.48-.03.14-.09.27-.18.37-.09.11-.21.19-.37.25-.16.06-.35.09-.58.09-.14,0-.26-.01-.38-.03-.11-.02-.24-.05-.38-.08-.12-.03-.23-.07-.33-.1-.1-.04-.17-.06-.22-.08h-.04Zm1.97-1.57c-.2.08-.4.11-.59.11-.37,0-.63-.13-.8-.38-.16-.25-.24-.62-.24-1.11,0-.51.11-.91.32-1.18.22-.27.51-.41.88-.41.16,0,.31.02.47.06.16.04.32.1.51.19v2.41c-.16.14-.34.24-.55.32m-3.05-1.97c0-.54-.12-.95-.36-1.23-.24-.28-.58-.43-1.01-.43-.24,0-.47.05-.68.16-.21.11-.43.26-.65.45v-.49h-.74v4.38h.74v-3.27c.19-.16.38-.28.57-.38.19-.1.38-.15.57-.15s.33.03.44.08c.11.06.19.14.25.25.06.1.09.24.11.42.02.17.03.36.03.56v2.5h.74v-2.85Zm-4.4-3.04h-.84v.77h.84v-.77Zm-.05,1.5h-.74v4.38h.74v-4.38Zm-1.64,4.44c.14-.02.28-.05.42-.09v-.66h-.04c-.05.02-.13.05-.24.09-.11.04-.23.05-.35.05-.17,0-.31-.02-.4-.07-.1-.04-.17-.11-.22-.21-.05-.11-.08-.22-.09-.34,0-.12-.01-.29-.01-.51v-2.08h1.36v-.61h-1.36v-1.26h-.74v1.26h-.5v.61h.5v2.43c0,.49.11.86.34,1.09.23.23.54.34.94.34.12,0,.25-.01.39-.03m-3.22.02c.1-.02.21-.05.34-.08.09-.02.19-.06.3-.11.11-.05.2-.09.27-.12v-.83h-.04c-.17.16-.36.28-.58.38-.22.1-.44.15-.69.15-.4,0-.71-.14-.93-.43-.22-.29-.34-.69-.34-1.21s.12-.94.35-1.23c.23-.29.54-.43.92-.43.13,0,.26.02.4.06.14.04.26.08.36.14.12.06.22.12.3.18.08.06.15.11.2.15h.04v-.83c-.18-.09-.38-.17-.6-.24-.22-.07-.46-.1-.7-.1-.3,0-.57.05-.83.16-.26.1-.47.25-.65.44-.17.19-.31.43-.41.71-.1.28-.16.61-.16,1s.05.72.15,1.01c.1.29.24.52.42.71.18.19.4.33.65.42.25.09.53.14.83.14.16,0,.28,0,.38-.03m-5.83-2.75c.02-.19.05-.35.11-.49.06-.14.14-.27.25-.38.11-.11.24-.2.37-.26.14-.06.31-.09.5-.09s.37.03.5.09c.13.06.24.14.33.25.08.1.14.22.18.36.04.14.06.32.07.52h-2.32Zm1.9,2.75c.12-.02.25-.05.39-.09.1-.03.22-.07.35-.12.13-.05.23-.09.32-.13v-.81h-.04c-.06.05-.14.1-.23.16-.09.06-.2.11-.34.17-.12.06-.27.11-.42.14s-.32.06-.48.06c-.45,0-.81-.14-1.06-.41-.26-.27-.38-.66-.38-1.17h3.04v-.4c0-.35-.04-.65-.13-.89-.08-.24-.2-.45-.36-.61s-.34-.29-.55-.37c-.21-.08-.45-.12-.72-.12-.61,0-1.1.21-1.47.63-.37.42-.56.99-.56,1.71s.19,1.28.58,1.68c.38.39.93.59,1.63.59.18,0,.32-.01.44-.03m-3.3-2.92c0-.54-.12-.95-.36-1.23-.24-.28-.58-.43-1.01-.43-.24,0-.47.05-.68.16-.21.11-.43.26-.65.45v-.49h-.74v4.38h.74v-3.27c.19-.16.38-.28.57-.38.19-.1.38-.15.57-.15s.33.03.44.08c.11.06.19.14.25.25.05.1.09.24.11.42.02.17.03.36.03.56v2.5h.74v-2.85Zm-4.4,0c0-.54-.12-.95-.36-1.23-.24-.28-.58-.43-1.01-.43-.24,0-.47.05-.68.16-.21.11-.43.26-.65.45v-.49h-.74v4.38h.74v-3.27c.19-.16.38-.28.57-.38.19-.1.38-.15.57-.15s.33.03.44.08c.11.06.19.14.25.25.06.1.09.24.11.42.02.17.03.36.03.56v2.5h.74v-2.85Zm-5.19,1.91c-.21.28-.5.42-.88.42s-.68-.14-.89-.43c-.21-.28-.31-.7-.31-1.25s.1-.99.31-1.27c.21-.28.51-.41.89-.41s.68.14.88.41c.21.28.31.7.31,1.27s-.11.98-.31,1.26m.54-2.97c-.36-.4-.83-.61-1.42-.61s-1.06.2-1.42.61c-.36.41-.54.97-.54,1.71s.17,1.27.52,1.69c.35.42.83.62,1.44.62s1.06-.2,1.42-.6c.36-.4.53-.97.53-1.71s-.18-1.31-.53-1.71m-4.91,3.96c.14-.03.3-.07.47-.13.16-.05.3-.11.41-.16.11-.06.23-.11.36-.17v-.93h-.06c-.06.06-.14.13-.25.22-.1.08-.23.17-.37.25-.15.08-.32.15-.51.21-.19.06-.4.08-.62.08-.24,0-.48-.05-.7-.15-.22-.1-.41-.24-.57-.44-.17-.2-.3-.44-.4-.73-.1-.29-.14-.63-.14-1.03,0-.38.05-.72.14-1.02.09-.3.22-.55.38-.75.17-.2.36-.35.58-.45.22-.1.46-.15.71-.15.23,0,.43.03.61.08.18.05.34.12.49.2.16.09.29.17.39.26.11.09.19.16.26.23h.06v-.94c-.13-.07-.26-.14-.39-.19-.13-.06-.26-.11-.39-.15-.15-.04-.31-.08-.48-.11-.17-.03-.36-.04-.55-.04-.39,0-.75.07-1.07.21-.32.14-.59.34-.83.6-.24.27-.42.58-.54.95-.12.36-.19.79-.19,1.28s.06.93.19,1.31c.13.38.31.7.54.95.23.25.51.44.83.57.32.13.67.19,1.05.19.23,0,.42-.01.57-.04"/><path class="cls-8" d="m215.53,114.81c.02-.19.05-.35.11-.49.06-.14.14-.27.25-.38.11-.11.24-.2.37-.26.14-.06.3-.09.5-.09s.37.03.5.09c.13.06.24.14.33.25.08.1.14.22.18.36.04.14.07.32.07.52h-2.32Zm1.9,2.75c.12-.02.25-.05.39-.09.1-.03.22-.07.34-.12.13-.05.24-.09.32-.13v-.81h-.04c-.06.05-.14.1-.23.16-.09.06-.21.11-.34.17-.13.06-.27.11-.42.14-.16.04-.31.06-.48.06-.45,0-.81-.14-1.06-.41-.26-.27-.38-.66-.38-1.17h3.04v-.4c0-.35-.04-.65-.12-.89-.08-.24-.21-.45-.36-.61-.16-.17-.34-.29-.55-.37-.21-.08-.45-.12-.72-.12-.6,0-1.09.21-1.47.63-.37.42-.56.99-.56,1.71s.19,1.28.58,1.68c.39.39.93.59,1.63.59.18,0,.33-.01.44-.03m-3.3-2.92c0-.54-.12-.95-.37-1.23-.24-.28-.58-.43-1.01-.43-.24,0-.46.05-.68.16-.21.11-.43.26-.65.45v-2.21h-.74v6.11h.74v-3.27c.18-.16.38-.28.57-.38.19-.1.38-.15.57-.15s.33.03.44.08c.11.05.19.14.25.25.06.1.09.24.11.42s.03.36.03.56v2.5h.74v-2.85Zm-4.33,2.9c.14-.02.28-.05.42-.09v-.66h-.04c-.05.02-.13.05-.24.09-.11.04-.23.05-.35.05-.17,0-.31-.02-.41-.07-.1-.04-.17-.11-.22-.21-.05-.11-.08-.22-.09-.34,0-.12-.01-.29-.01-.51v-2.08h1.36v-.61h-1.36v-1.26h-.74v1.26h-.5v.61h.5v2.43c0,.49.11.86.34,1.09.22.23.54.34.94.34.12,0,.25-.01.39-.03m-5.4-4.44l-1.19,3.25-1.2-3.25h-.8l1.59,4.17-.78,1.83h.79l2.36-6h-.77Zm-3.77.47c-.28-.4-.67-.59-1.17-.59-.27,0-.52.06-.74.17s-.42.25-.6.42v-2.18h-.74v6.11h.69l.05-.21c.16.1.33.18.5.24.17.06.37.09.61.09.52,0,.96-.22,1.31-.66.35-.44.52-1.01.52-1.73s-.14-1.25-.43-1.65m-.66,2.97c-.21.27-.51.4-.89.4-.17,0-.33-.02-.48-.06-.14-.04-.31-.1-.49-.19v-2.51c.17-.14.35-.26.56-.36.21-.09.41-.14.61-.14.35,0,.61.13.77.41.16.27.24.67.24,1.19,0,.58-.11,1-.32,1.26m-7.3.23c-.19.09-.39.13-.58.13-.36,0-.63-.14-.79-.41-.17-.27-.25-.67-.25-1.18s.11-.95.32-1.23c.21-.28.51-.43.89-.43.17,0,.33.02.47.05.14.03.31.1.49.18v2.53c-.17.15-.36.27-.55.36m1.29-5.39h-.74v1.9c-.18-.1-.35-.18-.51-.22-.16-.05-.35-.07-.57-.07-.25,0-.49.06-.71.16-.23.11-.42.26-.58.45-.17.21-.31.46-.41.74-.1.28-.15.61-.15,1s.04.7.12.98c.08.28.19.52.33.72.14.19.31.34.52.44.2.1.42.15.66.15.15,0,.28-.01.39-.04.11-.03.22-.07.33-.12.11-.05.21-.11.29-.17.08-.06.18-.14.3-.24v.45h.74v-6.11Zm-7.08,3.43c.02-.19.05-.35.11-.49s.14-.27.25-.38c.11-.11.24-.2.37-.26.14-.06.3-.09.5-.09s.37.03.5.09c.13.06.24.14.33.25.08.1.14.22.18.36.04.14.07.32.07.52h-2.32Zm1.9,2.75c.12-.02.25-.05.39-.09.1-.03.22-.07.34-.12.13-.05.24-.09.32-.13v-.81h-.04c-.06.05-.14.1-.23.16-.09.06-.21.11-.34.17-.13.06-.27.11-.42.14-.16.04-.31.06-.48.06-.45,0-.81-.14-1.06-.41-.26-.27-.38-.66-.38-1.17h3.04v-.4c0-.35-.04-.65-.12-.89-.08-.24-.21-.45-.36-.61-.16-.17-.34-.29-.55-.37-.21-.08-.45-.12-.72-.12-.6,0-1.09.21-1.47.63-.37.42-.56.99-.56,1.71s.19,1.28.58,1.68c.39.39.93.59,1.63.59.18,0,.33-.01.44-.03m-3.85,0c.1-.02.21-.05.34-.08.09-.02.19-.06.3-.11s.2-.09.27-.12v-.83h-.04c-.17.16-.36.28-.58.38-.22.1-.45.15-.69.15-.4,0-.71-.14-.93-.43-.22-.29-.33-.69-.33-1.21s.12-.94.35-1.23c.23-.29.54-.43.92-.43.13,0,.26.02.4.06.14.04.26.08.36.14.12.06.22.12.3.18.08.06.15.11.2.15h.04v-.83c-.17-.09-.37-.17-.6-.24-.22-.07-.46-.1-.7-.1-.29,0-.57.05-.83.16-.26.1-.47.25-.64.44-.17.19-.31.43-.41.71-.1.28-.16.61-.16,1s.05.72.15,1.01c.1.29.24.52.42.71.18.19.4.33.65.42.25.09.53.14.83.14.16,0,.29,0,.38-.03m-3.08-2.91c0-.54-.12-.95-.37-1.23-.24-.28-.58-.43-1.01-.43-.24,0-.46.05-.68.16-.22.11-.43.26-.65.45v-.49h-.74v4.38h.74v-3.27c.19-.16.38-.28.57-.38.19-.1.38-.15.57-.15s.33.03.44.08.19.14.25.25c.06.1.09.24.11.42.02.17.03.36.03.56v2.5h.74v-2.85Zm-5.13,2.85h.73v-3c0-.27-.04-.51-.12-.7-.08-.19-.2-.35-.36-.47-.17-.12-.35-.21-.56-.25-.21-.05-.46-.07-.76-.07-.25,0-.5.02-.75.07-.25.05-.45.09-.58.13v.75h.04c.23-.1.46-.17.69-.22.23-.05.43-.08.6-.08.14,0,.28.01.42.03.13.02.25.06.34.12.09.06.17.14.22.24.05.11.08.24.08.42v.14c-.39.02-.75.05-1.08.1-.33.04-.63.12-.87.23-.28.13-.48.29-.61.51-.13.21-.19.47-.19.77,0,.2.04.38.11.56.07.18.16.32.28.44.12.12.27.22.43.29.16.07.33.1.51.1.22,0,.39-.02.51-.06.12-.04.25-.09.38-.16.09-.05.19-.11.29-.19.1-.08.18-.14.24-.19v.47Zm-.53-.71c-.19.1-.4.15-.63.15-.27,0-.48-.06-.62-.19-.14-.13-.21-.32-.21-.57,0-.22.06-.39.19-.52.13-.12.29-.22.49-.28.17-.05.38-.09.65-.12.27-.03.49-.05.67-.07v1.22c-.17.15-.34.27-.53.37m-2.87-2.14c0-.54-.12-.95-.37-1.23-.24-.28-.58-.43-1.01-.43-.24,0-.46.05-.68.16-.21.11-.43.26-.65.45v-.49h-.74v4.38h.74v-3.27c.18-.16.38-.28.57-.38.19-.1.38-.15.57-.15s.33.03.44.08c.11.05.19.14.25.25.06.1.09.24.11.42.02.17.03.36.03.56v2.5h.74v-2.85Zm-4.44-3.04h-.79v.77h.79v-.77Zm0,1.5h-2.42v-.23c0-.31.06-.53.16-.68.11-.14.3-.22.57-.22.11,0,.21.01.31.03.1.02.17.04.21.06h.04v-.68c-.07-.01-.17-.02-.28-.04-.11-.01-.23-.02-.37-.02-.4,0-.73.14-.98.41-.25.28-.38.65-.38,1.13v.22h-.5v.61h.5v3.77h.74v-3.78h1.66v3.78h.74v-4.38Zm-4.02,1.47h-2.21v.71h2.21v-.71Zm-3.78,1.98c-.21.28-.5.42-.88.42s-.68-.14-.89-.43c-.21-.28-.31-.7-.31-1.25s.1-.99.31-1.27c.21-.28.51-.41.89-.41s.68.14.88.41c.21.28.31.7.31,1.27s-.11.98-.31,1.26m.54-2.97c-.36-.4-.83-.61-1.42-.61s-1.06.2-1.42.61-.54.97-.54,1.71.17,1.27.52,1.69c.35.42.83.62,1.44.62s1.06-.2,1.42-.6c.36-.4.53-.97.53-1.71s-.18-1.31-.53-1.71m-4.91,3.96c.14-.03.3-.07.47-.13.16-.05.3-.11.41-.16.11-.06.23-.11.36-.17v-.93h-.06c-.06.06-.14.13-.25.22-.1.08-.23.17-.37.25-.15.08-.32.15-.51.21-.19.06-.4.08-.62.08-.24,0-.48-.05-.7-.15-.22-.1-.41-.24-.57-.44-.17-.2-.3-.44-.4-.73-.1-.29-.14-.63-.14-1.03,0-.38.05-.72.14-1.02.09-.3.22-.55.38-.75.17-.2.36-.35.58-.45.22-.1.46-.15.71-.15.23,0,.43.03.61.08.18.05.34.12.49.2.16.09.29.17.39.26.11.09.19.16.26.23h.06v-.94c-.13-.07-.26-.14-.39-.19-.13-.06-.26-.11-.39-.15-.15-.04-.31-.08-.48-.11-.17-.03-.36-.04-.55-.04-.39,0-.75.07-1.07.21-.32.14-.59.34-.83.6-.24.27-.42.58-.54.95-.12.36-.19.79-.19,1.28s.06.93.19,1.31c.13.38.31.7.54.95.23.25.51.44.83.57.32.13.67.19,1.05.19.23,0,.42-.01.57-.04"/></g></svg>