<?xml version="1.0" encoding="utf-8"?>
<!-- Generator: Adobe Illustrator 27.2.0, SVG Export Plug-In . SVG Version: 6.00 Build 0)  -->
<svg version="1.1" id="Layer_2_00000166673908746100469400000013142441580737395595_"
	 xmlns="http://www.w3.org/2000/svg" xmlns:xlink="http://www.w3.org/1999/xlink" x="0px" y="0px" viewBox="0 0 395.8 397"
	 style="enable-background:new 0 0 395.8 397;" xml:space="preserve">
<style type="text/css">
	.st0{fill:#FFFFFF;}
</style>
<g id="Layer_1-2">
	<g>
		<path class="st0" d="M360.7,190c-3-2.7-4.3-7.9-9.5-6.3c-0.8-1.1-2.4-1.9-2.5-3.2c-4.1,2.1-4.7-3.9-8.8-1.9c-6-1.7-1.6-8.4-3.8-12
			c-4.4-0.9-7.3,2.2-10.7,3.8c-4.6,0.8-8.8-0.9-11.4-3.8c-2.2,1.3-2.1,3.6-3.8,5.1c-3.2-2.1-6,4.1-8.8,0.6c-3-0.9-4.4,1.4-6.3,3.2
			c-8.5-0.9-14,6.6-22.1,5.7c-0.5,1.1-1.7,0.5-2.5,0.6c-3.5,4.6-13.1-1.4-15.8,5.1l-3.8-4.4c-2.2-1.4-5.1,1.4-5.1-2.5
			c-1.7-2.8-5.4-6.3-8.8-7.6c-4.3,0.3-5.5-3.8-8.2-5.7c0.2-2,0.1-4.5,0-6.7h0c-0.2-6.3-0.7-12.7,1.8-17.3c-4.1-1.6,0.3-7.9-3.8-10.1
			c0.6-7.1-0.6-13.5-3.5-19.1h0c-0.1-0.2-0.2-0.4-0.2-0.5c1.6-1.1-0.6-4.3,1.9-4.4c-1.9-4.6,5.7-3.5,3.2-8.2
			c1.9-2.7,5.7-7.9,9.5-3.2c3.9-1.4,5.1-6.3,4.4-10.7c1.9-0.5,1.7-4.7,5.1-3.2c1.3-3,2.1-7.6,6.9-7.6c2.1-3.2,4.4-6.1,6.9-8.7l0,0
			c3-3.2,6.2-6.1,9.5-8.9c-0.8-4.1,3.3-4.7,5-6.9c0-7.4,8.2-2.8,12-5c-0.6-3.2,1.6-7.4-1.9-9.5c1.3-5-2.2-8.8-1.9-12.6
			c-2.4-5-8.8-6.6-12.6-9.5c-3.2-3.9-10.4-0.2-14.5-3.2c-2.7-1.9-5.8,0.5-6.3,3.2c-1.6,0.2-1.3-1.7-1.9-2.5
			c-1.6-0.9-3.5-3.5-6.3-2.5c-1.6,4.1-7.1,7.1-6.9,11.4c-0.6,5.2-6.8,3-10.1,4.4c-1.3,2.7-0.6,6.3,1.9,8.2c0.2,4-1.2,4.4-5.7,5
			c-1.3,0.8,0,1.3,0,1.3c1.1,0.2,2.5-0.5,3.2,0.6c1.4,1.1,0.2,3-1.3,3.2c0.6,3.2-1.6,7.4,1.9,9.5c1.6,4.3-2.4,6.8-5.1,8.8
			c-0.9,1.4-1.5,3.2-2,5.1l0,0c-0.8,2.8-1.6,5.8-3.7,8.1c-3.6-0.6-6.5,0.9-9.5,1.9c0.3,1.9-0.5,3.3-1.9,4.4
			c-2.4,0.5-4.3-0.6-6.3-1.3c-3.3,1.1-0.5,4.6-3.8,5.7c-0.5,8.1-9.9,3.5-12,10.1l0.6,0.6c1.1,2.7-1.7,3.8-3.2,5.1l-1.3-1.3
			c-6,0.7-6.2,8.9-7.5,13.5h0c0,0.1-0.1,0.2-0.1,0.3c-0.9,2.4-3.3,0.8-5.1,1.3c0.5,2.5-1.1,5.8,1.3,7.6c-0.3,2.5,2.4,6.6-1.3,7.6
			c-1.3,3.5,2.2,3.3,1.9,6.3c-0.3,1.3-1.6,2.4-3.2,1.9c-6.8,4.1,2.4,9.3-0.6,15.8c2.1,0.8,2,3,1.9,5.2h0c-0.1,2,0,4.2,1.9,4.9
			c0.8,5.1,6,6.6,10.7,7.6c3.9,4.3,2.2,6.9,7.6,10.7c-1.9,3.6,3.9,5.7,1.9,10.1c-3.2,2.7-6.3,5.2-10.7,5.1c-4.4,4.7,2.5,3,3.8,6.9
			c-0.4,0.4-0.8,0.8-1.1,1.3l0,0c-0.2,0.4-0.3,0.8-0.1,1.2c-2.1,2.7-3.9,5.8-6.9,6.3c-3.2-0.3-3,3-6.3,2.5
			c-4.3,4.6-8.8,4.3-13.9,5.1v5.1c1.1,0.2,2.5-0.5,3.2,0.6c0,5.1,0.4,11.2-2.6,14c-0.2,0.2-0.4,0.3-0.6,0.5v12.6
			c-0.6,0.5-0.9,1.6-1.9,1.3c0.5,3-0.6,5.5-1.3,8.2c-2.4,3.3-2.8,7.6-5.7,10.7c0.2,0.6,0.4,1.1,0.4,1.5l0,0c0.2,2.9-2.9,4.5-1.7,8.5
			c-9.3,2.7-20.4-1.3-25.2,9.5c-0.2,1.5-0.5,3.4-1.1,5.2l0,0c-0.6,2.1-1.5,4.1-2.7,5.5c-0.6-1.4-3.3,0.5-3.2-1.9h-1.9
			c-2.1,1.4-8.2,2.7-11.4,0.6c0.8-1.1,1.2-2.7,1.3-4.2c0.2-2.4-0.2-4.9-0.7-6.5c-0.6-2.8-4.3-6.6-1.3-8.8l-1.3-4.4
			c0.3-0.3,0.6-0.8,1.3-0.6v-9.5c-2.5-1.1-3-6-6.9-5c-0.2-4.6-4.9-5.4-3.2-10.7c-5.1-0.6-1.6-6.8-4.4-9.5
			c-5.1-5.1-12.3,2.1-18.9-1.3c-6.9,0.5-2.5,8.8-3.8,13.2c-9.8,4-2.5,13.6-3.2,20.2l0-0.3l0,0c0,0.1,0,0.2,0,0.3
			c1.6,1.6,2.5,3.2,5.7,2.5c0.8,1.1,2.4,1.9,2.5,3.2c-1,1.6-2.5,1.7-3.8,2.5c-7.6,0-5.7,9.5-11.4,11.4c-1.2,1.1-3.5,1.4-3.4,3.3
			c0,0.3,0.1,0.7,0.2,1.1c-1.1,0.8-1.9,2.4-3.2,2.5c-2.2,7.7,1.9,11.5,6.3,16.4c-0.3,0.3-0.6,0.8-1.3,0.6v5c2,5.5,6.5,1.3,10.7,2.5
			c0.5,0.6,1.6,1,1.3,1.9h3.2c8.7,1.9-3.3,5.4,0,10.1c2.4,0.6,6.3-1.6,6.9,1.9h5.7c2.5-6.5,10.9-9.9,16.4-10.1
			c0.8-1.3,3.6-1.3,2.5-3.8c8.2-4.7,4.9,8.4,12,10.7c2.7,5.2,6.8,9.9,11.4,12.6c10.1,2.2,1.9-9,8.8-11.4c4.1,1.3,5.8-3.6,10.1-1.9
			c8.7-3.8,15.8-7.4,24-12.6c3.8,0.3,6.6-1.6,10-2.5c1.9-0.5,3.9-0.7,6.4-0.1c0.1,0,0.1,0,0.1,0.1c4.7,2,2,10.4,8.1,10
			c1.7,4.4,5.1-0.8,6.9,3.2c3.5,0.2,6.9,0.3,8.8-3.2c3.3-1.6,7.1-2,7.6-6.3c-2.2-0.8-4.9-0.2-6.9-1.3c-0.1-1,0.2-1.8,0.6-2.5
			c1.2-1.7,3.9-2.2,5.7-3.2c4.4-2.5,8.7,2,13.9,1.3v-3.8c0.6-0.5,0.9-1.6,1.9-1.3v-9.5c-3.2-0.8-1.2-4.5-2.2-6.8l0,0
			c-0.3-0.6-0.8-1.1-1.6-1.5v-20.2c0.5-0.6,1-1.1,1.5-1.6c2.1-2.1,4.1-3.7,5.4-6c-0.3-1.9,0.5-3.3,1.9-4.4l-0.6-0.6
			c2.4-1.4,1.3-6,5.1-5c1.1-5.2,6.5-4.1,10.1-6.9c3.8,0.2,3.1,4.4,5.7,6.3c5.5,0.3,2.4,6,3.8,8.8c4.4,0.8,6.9,6.3,11.4,6.9
			c1.9-1,4.1-3.8,6.9-3.8c3.3-6,1.7-10.3,1.3-17c4.1-2.8-0.3-9.1,3.8-12c0-0.4,0-0.7,0-1.1c0-1.8,0.3-3.8-0.6-5.2
			c-2.8,0.3-6.3-0.9-8.2,1.9c-4-5.8-5.2-11.2-6.3-18.3c2.4-1.6,1-5.8,0-8.2c-0.6-1.9,1.9-2.2,1.9-3.8c3,1.7,5,0.4,6.8-1.2l0,0
			c2.1-2,4-4.6,7.1-3.8c0.3,0.3,0.8,0.6,0.6,1.3c1.3-0.2,3.5,0.5,3.8-0.6c4.7,1.3,8.2-4.4,12.6-5.7c0.3,0.3,0.8,0.6,0.6,1.3
			c2.4,0.5,5.7-1.4,6.9,1.9c4.9,0.9,9.8,2.1,13.9,5.1c5.5-0.9,13.6,2.7,16.4-3.8c-0.2-1.6-3.8-3.2-0.6-4.4c6.8,0.3,10.6-6.6,17-6.9
			c2.8,4.9,8.5-1.7,10.7,3.2C358.6,192.5,361.9,192.6,360.7,190L360.7,190z M278.7,38c0.5-0.1,1.3-0.2,1.3-0.2l1.6-0.1
			c0,0,1,0.5,1.1,0.7s0,0.5,0,0.5s-0.9,0-1.1,0.2s-0.3,0.7-0.3,0.7s0.1,1.2-0.1,1.4c-0.3,0.2-1.4,0.1-1.4,0.1l-1.2-0.3
			c0,0-0.5-0.7-0.7-1c-0.2-0.3-0.3-1-0.3-1S278.2,38.1,278.7,38z M58.4,309.8c-5.4-0.5-6.2-6-8.7-10.2c0.7-0.8-1.4-2.7-0.8-3.5
			c0.7-1,4-0.8,5.9-0.1c0.1,0.3,0.2,0.7,0.3,0.9c1.5,3.7,6.3,2.1,9.2,3.4C65.7,305.7,62.2,308,58.4,309.8L58.4,309.8z M78.4,324
			l-1.2,0.3l-1.1-0.4l-1-0.3l-1.1,0.3l-1.1,0.1l-1.1-0.7l-0.2-0.4l-1-1.2l-1-0.6l-1.1-0.5l-1-0.6l-0.3-0.8l1.1-0.1l0.1-1.1l-0.4-1.2
			l0.9-1l1.2-0.1l1.1,0.1l1,1l0.5,1.3l1,0.9l1.2,0.8l1.2-0.6l0.4-1l0.9,0.7l0.2,0.2l0.3,1.3l0.8,1.2l0.1,0.2l0.1,0.1l-0.7,1
			L78.4,324L78.4,324z M78.5,310.4c-3.5-2.8-9-3.3-9.5-7.4c-0.4-4.1,0.7-2.6-0.1-3.7c-0.9-1.3-1.6-2.9-2.4-4.2
			c1.2-4.1,8-0.6,7.3-7.3c-4-6,4,0,4,0c-0.3,2.6,0.3,5,2.7,6.6l4-4c-2.2-1.8-1.5-4.7,1.3-4.6c1.8-0.7,2.8,1,4,2
			c-0.4,4.2,1.8,8.7-1.4,11.5c-0.5,0.4-1.1,0.8-1.9,1.1c3.8,6.6-7.1,7.3-3.3,13.9c-1,0.3-2,0.8-3.3,0.7
			C77.7,314.2,78.9,312.1,78.5,310.4L78.5,310.4z M82.1,321.4c-0.6,1.2-0.3,2.9-1,3.3c-1.1-1-1-5.6-0.5-7.8c1.4,0,3-0.3,3.8,1.3
			C84.3,318.9,82.8,319.9,82.1,321.4L82.1,321.4z M91.2,315.9c-0.9,0.3-2.1-0.9-2.8-0.3c-0.5,0.4-2.1,1-2.9,1.4
			c0.1,0.2,0,0.3-0.2,0.3c-0.3,0-0.1-0.1,0.2-0.3c-0.2-0.5-1.1-1.4-1.1-1.4l0.9-0.7h1.6c0,0-1-1.7,0-1.9s3.4,0.3,4.1,0.9
			C91.8,314.3,92.1,315.5,91.2,315.9L91.2,315.9z M127.3,317.2c-2.6,1-4-1.9-5.7-3.3l0.9-3.8c0.4-0.4,0.8-0.9,1.2-0.8
			c1.5,0.4,2.9,3.7,4.4,4.6C128.2,314.8,128.5,316.7,127.3,317.2z M159.7,255.6c-0.9,1.1-1.5,1.5-1.5,2c0,0.4-0.6,1.4-0.8,2.2
			c-0.3,1.6-0.8,3.4-0.7,5.2c-1.3,3.2-2.3,5.9-1.9,6.6c-0.6,1.5-1.4,3-2.4,4.6c0,0-1.1,1.3-1.2,2.6c0,0.6-1.8,4.4-1.8,4.4
			c-1-2.2-1.2-4.8-0.5-7c0.9-2.8,1.6-6.2,3.5-8.6c0.3-2.2,1.8-4,2.8-5.9c0.7-1.3,0.5-2.5,0.9-4c0.4-1.4,2.4-3.5,2.4-5.2
			C159.7,253.1,160.6,254.5,159.7,255.6L159.7,255.6z M191.4,241.3c-1,4.1-8.9,6.6-3.1,11.2c-1.3,2.1-3.1,4.2-5.1,6.2
			c-0.9,0.9-2.8,1.3-3.8,1.9c-1.1,0.7-1.6,5.8-2.8,5.9c-0.8-7.7,0.6-17.8,6.4-21.5c0.4-1.5,0.9-2.8,2-3.5c1.9-1.3,4.7-1.5,6.4-1.4
			C191.6,240.4,191.6,240.8,191.4,241.3L191.4,241.3z M213.6,185.8c-6.1,1.9-10.6-5.1-14.1-4.4c-1.8-0.7-0.4-1.6,0-2.4
			c0.7-1.5,2.6-1.9,3.6-3.1c1.8-2.2,3-2.1,5.1-2.8c0,0,6.1,3.6,8,5.9C218,181.3,215.9,183.9,213.6,185.8L213.6,185.8z M236.4,213.3
			c2.4,1.8,3.7,1.1,6.4,1.1c1.2-1.4,0.3-2.9,2.9-2.1c1.4,1.2,2.9,0.3,4.3,3.6c0,0-1,2.2-3.7,3.9c-1.5,0.9-3,1.9-3.9,1.3
			c-0.9-0.6-0.9-2.8-1.7-4c-0.9-1.3-2.5-1.7-4.3-1.4C236.4,215.8,233.1,214.3,236.4,213.3L236.4,213.3z M254.5,230.9
			c-1.5,1.6-2.8,2.2-4.8,3.6c-3,0.8-5.6,0.2-7.9,1.7c-2.5,1.6-2.5,5.9-5.3,8.3c-0.5,0.5-1.1,0.9-1.6,1.4c-0.5-0.4-0.9-1.1-1.3-1.4
			c-0.3-0.2-0.7-0.4-1.1-0.2c0.6-1.9,3.5-3.9,1.6-5.7c-5.7-2.5,0.2-5.1-1.6-9.9c1.7,0.4,3.3,0.4,4.9,0.2c1.4-0.2,1.3-2.5,2.6-3
			c4-1.4,8.2-2.9,12.6-1.2c1.4,0.6,3.2,2,4.6,3.2C257,229.2,255.1,230.2,254.5,230.9L254.5,230.9z"/>
		<path class="st0" d="M144.6,382.7c1.1-3.7-0.9-7.2-4.5-8.2c-3.6-1-7.3,1.1-8.3,4.5c-1,3.5,0.8,7.1,4.7,8.3
			C139.8,388.2,143.5,386.8,144.6,382.7L144.6,382.7L144.6,382.7z M201.1,390.3c-0.1-3.9-3-6.6-6.7-6.5c-3.8,0.1-6.6,3.2-6.6,6.8
			c0.1,3.6,2.9,6.6,6.9,6.5C198.2,397,201.2,394.5,201.1,390.3L201.1,390.3z M257.4,381c-1.2-3.7-4.8-5.4-8.3-4.2
			c-3.6,1.2-5.4,5-4.2,8.4c1.1,3.4,4.8,5.4,8.5,4.2C256.5,388.3,258.7,385,257.4,381L257.4,381L257.4,381z M308.4,355.5
			c-2.3-3.1-6.2-3.7-9.2-1.5c-3.1,2.2-3.6,6.4-1.5,9.3c2.1,2.9,6.1,3.7,9.4,1.4C309.7,362.7,310.8,358.9,308.4,355.5L308.4,355.5
			L308.4,355.5z M349.7,316.1c-3.1-2.4-7-1.8-9.3,1.1c-2.3,3-1.7,7.1,1.1,9.3c2.9,2.2,7,1.9,9.4-1.3
			C353,322.6,353,318.7,349.7,316.1L349.7,316.1L349.7,316.1z M377.6,266.4c-3.6-1.4-7.2,0.4-8.5,3.8c-1.3,3.5,0.5,7.3,3.9,8.6
			c3.4,1.3,7.2-0.3,8.6-4C382.7,271.6,381.5,267.9,377.6,266.4L377.6,266.4L377.6,266.4z M389.5,210.6c-3.9-0.2-6.8,2.5-7,6.2
			c-0.2,3.8,2.7,6.8,6.2,7c3.6,0.2,6.8-2.4,7-6.4C396,214.1,393.7,210.9,389.5,210.6L389.5,210.6L389.5,210.6z M384.7,153.8
			c-3.8,0.9-5.7,4.4-4.8,8c0.9,3.7,4.6,5.7,8,4.9c3.5-0.9,5.8-4.3,4.8-8.2C391.8,155.2,388.7,152.8,384.7,153.8L384.7,153.8z
			 M363.2,101c-3.3,2-4.2,5.9-2.3,9.1c1.9,3.2,6.1,4.2,9.1,2.3c3.1-1.9,4.2-5.8,2.2-9.2C370.5,100.2,366.8,98.8,363.2,101L363.2,101
			L363.2,101z M327.1,56.5c-2.7,2.8-2.5,6.8,0.1,9.3c2.7,2.6,6.9,2.4,9.4-0.1c2.5-2.6,2.6-6.7-0.3-9.5
			C333.9,53.9,330,53.5,327.1,56.5L327.1,56.5L327.1,56.5z"/>
		<path class="st0" d="M35.6,224.2l0-7.1L20,217l0.1-14.3l15.6,0.1l0-7.1l-35.6-0.2l0,7.1l14.4,0.1L14.4,217l-14.4-0.1L0,224
			L35.6,224.2L35.6,224.2L35.6,224.2z M36,173.1l6.1-20.2l-5.4-1.6l-4.1,13.4l-9.6-2.9l3.7-12.1l-5.4-1.6l-3.7,12.1l-8.4-2.6l4-13.3
			l-5.4-1.6L2,162.8L36,173.1L36,173.1L36,173.1z M48.7,131.3l11-17.8l-4.8-2.9l-7.2,11.8l-25.5-15.7l-3.7,6.1L48.7,131.3
			L48.7,131.3L48.7,131.3z M83.8,74.1c-0.6,1.8-2.6,4.5-4.7,6.4c-5.5,5.2-12.5,4.3-17.5-1c-5-5.3-5.5-12.5-0.2-17.6
			c1.9-1.8,3.9-3.2,6.9-3.9l-3.8-4.7c-2.6,1-5.2,2.8-6.9,4.5C49,66.1,48.3,76.2,56.6,85c8.3,8.8,18,7.5,26.4-0.4
			c2-1.8,3.7-4.2,5.1-6.4L83.8,74.1L83.8,74.1L83.8,74.1z M92.5,49.4c4.8,9.8,13.5,14,23.8,9c10.1-5,12.2-14.6,7.5-24.3
			c-4.7-9.7-13.7-13.7-23.7-8.8C90,30.2,87.8,39.6,92.5,49.4L92.5,49.4L92.5,49.4z M99.2,46.1c-2.8-5.6-3-12.7,3.4-15.8
			s11.8,1.4,14.6,7c2.8,5.8,3.2,12.8-3.3,16C107.3,56.5,102.1,51.9,99.2,46.1L99.2,46.1L99.2,46.1z M150.9,41.8l6.7-1.2l-5-28.8
			l0.1-0.1L167.2,39l6.7-1.2l4.5-30.6l0.1,0l5,28.9l6.7-1.2l-6-35.1l-11.2,1.9l-3.8,28l-0.1,0L156.1,4.8l-11.2,1.9L150.9,41.8
			L150.9,41.8L150.9,41.8z"/>
	</g>
</g>
</svg>
