<?xml version="1.0" encoding="utf-8"?>
<!-- Generator: Adobe Illustrator 27.0.0, SVG Export Plug-In . SVG Version: 6.00 Build 0)  -->
<svg version="1.1" id="Layer_2_00000102513116612948426080000009666062908663988121_"
	 xmlns="http://www.w3.org/2000/svg" xmlns:xlink="http://www.w3.org/1999/xlink" x="0px" y="0px" viewBox="0 0 304.8 72.1"
	 style="enable-background:new 0 0 304.8 72.1;" xml:space="preserve">
<style type="text/css">
	.st0{fill:#004A80;}
</style>
<g id="Layer_1-2">
	<g>
		<path class="st0" d="M65.5,34.5c-0.5-0.5-0.8-1.4-1.7-1.2c-0.1-0.2-0.4-0.3-0.5-0.6c-0.8,0.4-0.9-0.7-1.6-0.3
			c-1.1-0.3-0.3-1.5-0.7-2.2c-0.8-0.2-1.3,0.4-2,0.7c-0.8,0.1-1.6-0.2-2.1-0.7c-0.4,0.2-0.4,0.7-0.7,0.9c-0.6-0.4-1.1,0.7-1.6,0.1
			c-0.5-0.2-0.8,0.3-1.2,0.6c-1.5-0.2-2.5,1.2-4,1c-0.1,0.2-0.3,0.1-0.5,0.1c-0.6,0.8-2.4-0.3-2.9,0.9l-0.7-0.8
			c-0.4-0.3-0.9,0.3-0.9-0.5c-0.3-0.5-1-1.1-1.6-1.4c-0.8,0.1-1-0.7-1.5-1c0-0.4,0-0.8,0-1.2l0,0c0-1.1-0.1-2.3,0.3-3.1
			c-0.7-0.3,0.1-1.4-0.7-1.8c0.1-1.3-0.1-2.5-0.6-3.5l0,0c0,0,0-0.1,0-0.1c0.3-0.2-0.1-0.8,0.3-0.8c-0.3-0.8,1-0.6,0.6-1.5
			c0.3-0.5,1-1.4,1.7-0.6c0.7-0.3,0.9-1.1,0.8-1.9c0.3-0.1,0.3-0.9,0.9-0.6c0.2-0.5,0.4-1.4,1.3-1.4c0.4-0.6,0.8-1.1,1.2-1.6l0,0
			c0.5-0.6,1.1-1.1,1.7-1.6c-0.1-0.7,0.6-0.9,0.9-1.3c0-1.3,1.5-0.5,2.2-0.9c-0.1-0.6,0.3-1.3-0.3-1.7c0.2-0.9-0.4-1.6-0.3-2.3
			c-0.4-0.9-1.6-1.2-2.3-1.7c-0.6-0.7-1.9,0-2.6-0.6c-0.5-0.3-1.1,0.1-1.2,0.6c-0.3,0-0.2-0.3-0.3-0.5c-0.3-0.2-0.6-0.6-1.2-0.5
			c-0.3,0.8-1.3,1.3-1.3,2.1c-0.1,1-1.2,0.5-1.8,0.8c-0.2,0.5-0.1,1.2,0.3,1.5c0,0.7-0.2,0.8-1,0.9c-0.2,0.1,0,0.2,0,0.2
			c0.2,0,0.5-0.1,0.6,0.1c0.3,0.2,0,0.5-0.2,0.6c0.1,0.6-0.3,1.3,0.3,1.7c0.3,0.8-0.4,1.2-0.9,1.6c-0.2,0.3-0.3,0.6-0.4,0.9l0,0
			c-0.2,0.5-0.3,1.1-0.7,1.5c-0.7-0.1-1.2,0.2-1.7,0.3c0.1,0.3-0.1,0.6-0.3,0.8c-0.4,0.1-0.8-0.1-1.2-0.2c-0.6,0.2-0.1,0.8-0.7,1
			c-0.1,1.5-1.8,0.6-2.2,1.8l0.1,0.1c0.2,0.5-0.3,0.7-0.6,0.9l-0.2-0.2c-1.1,0.1-1.1,1.6-1.4,2.5l0,0c0,0,0,0,0,0.1
			c-0.2,0.4-0.6,0.1-0.9,0.2c0.1,0.5-0.2,1.1,0.2,1.4c-0.1,0.5,0.4,1.2-0.2,1.4c-0.2,0.6,0.4,0.6,0.3,1.1c-0.1,0.2-0.3,0.4-0.6,0.3
			c-1.2,0.7,0.4,1.7-0.1,2.9c0.4,0.1,0.4,0.5,0.3,0.9l0,0c0,0.4,0,0.8,0.4,0.9c0.1,0.9,1.1,1.2,2,1.4c0.7,0.8,0.4,1.3,1.4,2
			c-0.3,0.7,0.7,1,0.3,1.8c-0.6,0.5-1.2,1-2,0.9c-0.8,0.9,0.5,0.5,0.7,1.3c-0.1,0.1-0.2,0.2-0.2,0.2l0,0c0,0.1-0.1,0.1,0,0.2
			c-0.4,0.5-0.7,1.1-1.3,1.2c-0.6-0.1-0.5,0.5-1.1,0.5c-0.8,0.8-1.6,0.8-2.5,0.9v0.9c0.2,0,0.5-0.1,0.6,0.1c0,0.9,0.1,2-0.5,2.5
			c0,0-0.1,0.1-0.1,0.1v2.3c-0.1,0.1-0.2,0.3-0.3,0.2c0.1,0.5-0.1,1-0.2,1.5c-0.4,0.6-0.5,1.4-1,2c0,0.1,0.1,0.2,0.1,0.3l0,0
			c0,0.5-0.5,0.8-0.3,1.5c-1.7,0.5-3.7-0.2-4.6,1.7c0,0.3-0.1,0.6-0.2,1l0,0c-0.1,0.4-0.3,0.7-0.5,1c-0.1-0.3-0.6,0.1-0.6-0.3h-0.3
			c-0.4,0.3-1.5,0.5-2.1,0.1c0.1-0.2,0.2-0.5,0.2-0.8c0-0.4,0-0.9-0.1-1.2c-0.1-0.5-0.8-1.2-0.2-1.6L17,50.8
			c0.1-0.1,0.1-0.1,0.2-0.1v-1.7c-0.5-0.2-0.5-1.1-1.3-0.9c0-0.8-0.9-1-0.6-2c-0.9-0.1-0.3-1.2-0.8-1.7c-0.9-0.9-2.2,0.4-3.4-0.2
			c-1.3,0.1-0.5,1.6-0.7,2.4C8.6,47.2,10,49,9.9,50.2v-0.1l0,0c0,0,0,0,0,0.1c0.3,0.3,0.5,0.6,1,0.5c0.1,0.2,0.4,0.3,0.5,0.6
			c-0.2,0.3-0.5,0.3-0.7,0.5c-1.4,0-1,1.7-2.1,2.1C8.4,53.9,8,54,8,54.3c0,0.1,0,0.1,0,0.2C7.8,54.7,7.7,55,7.4,55
			c-0.4,1.4,0.3,2.1,1.2,3c-0.1,0.1-0.1,0.1-0.2,0.1V59c0.4,1,1.2,0.2,1.9,0.5c0.1,0.1,0.3,0.2,0.2,0.3h0.6c1.6,0.3-0.6,1,0,1.8
			c0.4,0.1,1.1-0.3,1.3,0.3h1c0.5-1.2,2-1.8,3-1.8c0.1-0.2,0.7-0.2,0.5-0.7c1.5-0.9,0.9,1.5,2.2,2c0.5,1,1.2,1.8,2.1,2.3
			c1.8,0.4,0.3-1.6,1.6-2.1c0.7,0.2,1.1-0.7,1.8-0.3c1.6-0.7,2.9-1.3,4.4-2.3c0.7,0.1,1.2-0.3,1.8-0.5c0.3-0.1,0.7-0.1,1.2,0
			c0,0,0,0,0,0c0.8,0.4,0.4,1.9,1.5,1.8c0.3,0.8,0.9-0.1,1.3,0.6c0.6,0,1.3,0.1,1.6-0.6c0.6-0.3,1.3-0.4,1.4-1.2
			c-0.4-0.1-0.9,0-1.3-0.2c0-0.2,0-0.3,0.1-0.5c0.2-0.3,0.7-0.4,1-0.6c0.8-0.5,1.6,0.4,2.5,0.2v-0.7c0.1-0.1,0.2-0.3,0.3-0.2v-1.7
			c-0.6-0.1-0.2-0.8-0.4-1.2l0,0c0-0.1-0.1-0.2-0.3-0.3v-3.7c0.1-0.1,0.2-0.2,0.3-0.3c0.4-0.4,0.8-0.7,1-1.1
			c-0.1-0.3,0.1-0.6,0.3-0.8l-0.1-0.1c0.4-0.3,0.2-1.1,0.9-0.9c0.2-1,1.2-0.7,1.8-1.3c0.7,0,0.6,0.8,1,1.2c1,0.1,0.4,1.1,0.7,1.6
			c0.8,0.1,1.3,1.2,2.1,1.3c0.3-0.2,0.8-0.7,1.3-0.7c0.6-1.1,0.3-1.9,0.2-3.1c0.7-0.5-0.1-1.7,0.7-2.2c0-0.1,0-0.1,0-0.2
			c0-0.3,0.1-0.7-0.1-1c-0.5,0.1-1.2-0.2-1.5,0.3c-0.7-1.1-1-2-1.2-3.3c0.4-0.3,0.2-1.1,0-1.5C47,38,47.4,38,47.4,37.7
			c0.5,0.3,0.9,0.1,1.2-0.2l0,0c0.4-0.4,0.7-0.8,1.3-0.7c0.1,0.1,0.1,0.1,0.1,0.2c0.2,0,0.6,0.1,0.7-0.1c0.9,0.2,1.5-0.8,2.3-1
			c0.1,0.1,0.1,0.1,0.1,0.2c0.4,0.1,1-0.3,1.3,0.3c0.9,0.2,1.8,0.4,2.5,0.9c1-0.2,2.5,0.5,3-0.7c0-0.3-0.7-0.6-0.1-0.8
			c1.2,0.1,1.9-1.2,3.1-1.3c0.5,0.9,1.5-0.3,2,0.6C65,34.9,65.6,35,65.5,34.5L65.5,34.5L65.5,34.5z M10.6,56.2
			c-1-0.1-1.1-1.1-1.6-1.8c0.1-0.1-0.2-0.5-0.1-0.6c0.1-0.2,0.7-0.1,1.1,0c0,0.1,0,0.1,0.1,0.2c0.3,0.7,1.1,0.4,1.7,0.6
			C11.9,55.5,11.3,55.9,10.6,56.2L10.6,56.2L10.6,56.2z M14.6,57.5c0.3,0,0.5-0.1,0.7,0.2c0,0.1-0.3,0.3-0.4,0.6
			c-0.1,0.2-0.1,0.5-0.2,0.6C14.5,58.8,14.5,57.9,14.6,57.5L14.6,57.5L14.6,57.5z M12.2,58l0.2,0v-0.2l-0.1-0.2l0.2-0.2l0.2,0h0.2
			l0.2,0.2l0.1,0.2l0.2,0.2l0.2,0.1l0.2-0.1l0.1-0.2l0.2,0.1l0,0l0.1,0.2l0.1,0.2v0l0,0l-0.1,0.2l0,0.2L14,58.9l-0.2-0.1l-0.2,0
			l-0.2,0.1l-0.2,0L13,58.7l0-0.1l-0.2-0.2l-0.2-0.1l-0.2-0.1l-0.2-0.1L12.2,58L12.2,58L12.2,58z M16,54.3c-0.1,0.1-0.2,0.2-0.3,0.2
			c0.7,1.2-1.3,1.3-0.6,2.5c-0.2,0.1-0.4,0.2-0.6,0.1c-0.4-0.2-0.2-0.5-0.2-0.8c-0.6-0.5-1.6-0.6-1.7-1.3s0.1-0.5,0-0.7
			c-0.2-0.2-0.3-0.5-0.4-0.8c0.2-0.8,1.4-0.1,1.3-1.3c-0.7-1.1,0.7,0,0.7,0c-0.1,0.5,0.1,0.9,0.5,1.2l0.7-0.7
			c-0.4-0.3-0.3-0.9,0.2-0.8c0.3-0.1,0.5,0.2,0.7,0.4C16.2,53,16.6,53.9,16,54.3C16,54.3,16,54.3,16,54.3z M16.6,57.4
			c-0.2,0.1-0.4-0.2-0.5-0.1c-0.1,0.1-0.4,0.2-0.5,0.3c0,0,0,0,0,0c-0.1,0,0,0,0,0c0-0.1-0.2-0.3-0.2-0.3l0.2-0.1h0.3
			c0,0-0.2-0.3,0-0.3s0.6,0.1,0.8,0.2C16.6,57.1,16.7,57.3,16.6,57.4L16.6,57.4L16.6,57.4z M23.3,57c0,0.2,0,0.5-0.2,0.6
			c-0.5,0.2-0.7-0.3-1-0.6l0.2-0.7c0.1-0.1,0.1-0.2,0.2-0.2C22.7,56.2,23,56.8,23.3,57L23.3,57L23.3,57z M29,46.4
			c-0.2,0.2-0.3,0.3-0.3,0.4s-0.1,0.2-0.1,0.4c0,0.3-0.1,0.6-0.1,0.9c-0.2,0.6-0.4,1.1-0.4,1.2c-0.1,0.3-0.2,0.5-0.4,0.8
			c0,0-0.2,0.2-0.2,0.5c0,0.1-0.3,0.8-0.3,0.8c-0.2-0.4-0.2-0.9-0.1-1.3c0.2-0.5,0.3-1.1,0.6-1.6c0-0.4,0.3-0.7,0.5-1.1
			c0.1-0.2,0.1-0.5,0.2-0.7c0.1-0.2,0.4-0.6,0.4-0.9C29,46,29.2,46.2,29,46.4L29,46.4L29,46.4z M34.8,43.6c0,0.1,0,0.2,0,0.3
			c-0.2,0.8-1.6,1.2-0.6,2c-0.2,0.4-0.5,0.8-0.9,1.1c-0.2,0.2-0.5,0.2-0.7,0.3c-0.2,0.1-0.3,1-0.5,1.1c-0.1-1.4,0.1-3.2,1.2-3.9
			c0.1-0.3,0.2-0.5,0.4-0.6C33.9,43.6,34.5,43.5,34.8,43.6C34.8,43.6,34.8,43.6,34.8,43.6z M38.8,33.7c-1.1,0.3-1.9-0.9-2.6-0.8
			c-0.3-0.1-0.1-0.3,0-0.4c0.1-0.3,0.5-0.3,0.7-0.6c0.3-0.4,0.5-0.4,0.9-0.5c0,0,1.1,0.7,1.5,1.1C39.6,32.9,39.2,33.4,38.8,33.7
			L38.8,33.7L38.8,33.7z M50.4,7.1c0,0,0.1-0.2,0.2-0.2c0.1,0,0.2,0,0.2,0l0.3,0c0,0,0.2,0.1,0.2,0.1c0,0.1,0,0.1,0,0.1
			s-0.2,0-0.2,0c0,0-0.1,0.1-0.1,0.1s0,0.2,0,0.2s-0.2,0-0.2,0l-0.2-0.1c0,0-0.1-0.1-0.1-0.2C50.4,7.2,50.4,7.1,50.4,7.1L50.4,7.1
			L50.4,7.1z M45.4,39.2c0,0-0.2,0.4-0.7,0.7c-0.3,0.2-0.5,0.3-0.7,0.2c-0.2-0.1-0.2-0.5-0.3-0.7c-0.2-0.2-0.5-0.3-0.8-0.2
			c0,0-0.6-0.3,0-0.5c0.4,0.3,0.7,0.2,1.2,0.2c0.2-0.3,0-0.5,0.5-0.4C44.9,38.8,45.1,38.6,45.4,39.2L45.4,39.2L45.4,39.2z
			 M46.7,41.4c0,0.2-0.3,0.4-0.5,0.5c-0.3,0.3-0.5,0.4-0.9,0.7c-0.5,0.2-1,0-1.4,0.3c-0.5,0.3-0.5,1.1-1,1.5
			c-0.1,0.1-0.2,0.2-0.3,0.3c-0.1-0.1-0.2-0.2-0.2-0.3c0,0-0.1-0.1-0.2,0c0.1-0.3,0.6-0.7,0.3-1c-1-0.5,0-0.9-0.3-1.8
			c0.3,0.1,0.6,0.1,0.9,0c0.2,0,0.2-0.5,0.5-0.5c0.7-0.2,1.5-0.5,2.3-0.2C46.1,40.9,46.4,41.2,46.7,41.4L46.7,41.4L46.7,41.4z"/>
		<path class="st0" d="M26.3,69.5c0.2-0.7-0.2-1.3-0.8-1.5c-0.7-0.2-1.3,0.2-1.5,0.8c-0.2,0.6,0.1,1.3,0.9,1.5
			C25.4,70.5,26.1,70.2,26.3,69.5C26.3,69.5,26.3,69.5,26.3,69.5z M36.5,70.9c0-0.7-0.5-1.2-1.2-1.2s-1.2,0.6-1.2,1.2
			c0,0.7,0.5,1.2,1.2,1.2C36,72.1,36.5,71.6,36.5,70.9L36.5,70.9L36.5,70.9z M46.7,69.2c-0.2-0.7-0.9-1-1.5-0.8
			c-0.7,0.2-1,0.9-0.8,1.5c0.2,0.6,0.9,1,1.5,0.8C46.6,70.5,47,69.9,46.7,69.2L46.7,69.2L46.7,69.2z M56,64.5
			c-0.4-0.6-1.1-0.7-1.7-0.3c-0.6,0.4-0.7,1.2-0.3,1.7c0.4,0.5,1.1,0.7,1.7,0.3C56.2,65.8,56.4,65.2,56,64.5
			C56,64.5,56,64.5,56,64.5z M63.5,57.4c-0.6-0.4-1.3-0.3-1.7,0.2c-0.4,0.5-0.3,1.3,0.2,1.7s1.3,0.3,1.7-0.2
			C64.1,58.6,64.1,57.9,63.5,57.4L63.5,57.4L63.5,57.4z M68.6,48.4c-0.7-0.2-1.3,0.1-1.6,0.7c-0.2,0.6,0.1,1.3,0.7,1.6
			c0.6,0.2,1.3-0.1,1.6-0.7C69.5,49.3,69.3,48.6,68.6,48.4L68.6,48.4L68.6,48.4z M70.7,38.2c-0.7,0-1.2,0.5-1.3,1.1
			c0,0.7,0.5,1.2,1.1,1.3c0.7,0,1.2-0.4,1.3-1.2C71.9,38.9,71.5,38.3,70.7,38.2C70.7,38.2,70.7,38.2,70.7,38.2z M69.8,27.9
			c-0.7,0.2-1,0.8-0.9,1.5c0.2,0.7,0.8,1,1.5,0.9c0.6-0.2,1-0.8,0.9-1.5C71.2,28.2,70.6,27.7,69.8,27.9L69.8,27.9L69.8,27.9z
			 M66,18.3c-0.6,0.4-0.8,1.1-0.4,1.6c0.3,0.6,1.1,0.8,1.7,0.4c0.6-0.3,0.8-1.1,0.4-1.7C67.3,18.2,66.6,17.9,66,18.3L66,18.3
			L66,18.3z M59.4,10.3c-0.5,0.5-0.5,1.2,0,1.7c0.5,0.5,1.3,0.4,1.7,0c0.5-0.5,0.5-1.2,0-1.7C60.6,9.8,59.9,9.7,59.4,10.3L59.4,10.3
			z"/>
		<path class="st0" d="M6.5,40.7v-1.3l-2.8,0l0-2.6l2.8,0v-1.3l-6.4,0v1.3l2.6,0l0,2.6l-2.6,0v1.3L6.5,40.7L6.5,40.7z M6.5,31.4
			l1.1-3.7l-1-0.3l-0.7,2.4l-1.7-0.5l0.7-2.2l-1-0.3l-0.7,2.2l-1.5-0.5l0.7-2.4l-1-0.3l-1.1,3.6L6.5,31.4L6.5,31.4L6.5,31.4z
			 M8.9,23.8l2-3.2L10,20.1l-1.3,2.1L4,19.3l-0.7,1.1L8.9,23.8L8.9,23.8L8.9,23.8z M15.2,13.4c-0.1,0.3-0.5,0.8-0.9,1.2
			c-1,0.9-2.3,0.8-3.2-0.2c-0.9-1-1-2.3,0-3.2c0.3-0.3,0.7-0.6,1.2-0.7l-0.7-0.9c-0.5,0.2-0.9,0.5-1.2,0.8c-1.6,1.5-1.7,3.3-0.2,4.9
			c1.5,1.6,3.3,1.4,4.8-0.1c0.4-0.3,0.7-0.8,0.9-1.2L15.2,13.4L15.2,13.4L15.2,13.4z M16.8,9c0.9,1.8,2.5,2.5,4.3,1.6
			c1.8-0.9,2.2-2.7,1.4-4.4c-0.9-1.8-2.5-2.5-4.3-1.6C16.4,5.5,16,7.2,16.8,9L16.8,9L16.8,9z M18,8.4c-0.5-1-0.5-2.3,0.6-2.9
			c1.2-0.6,2.1,0.2,2.6,1.3c0.5,1,0.6,2.3-0.6,2.9S18.5,9.4,18,8.4L18,8.4L18,8.4z M27.4,7.6l1.2-0.2l-0.9-5.2l0,0l2.6,5l1.2-0.2
			l0.8-5.6h0l0.9,5.2l1.2-0.2L33.4,0l-2,0.3l-0.7,5.1h0l-2.4-4.6l-2,0.4L27.4,7.6C27.4,7.6,27.4,7.6,27.4,7.6z"/>
		<path class="st0" d="M90.3,59h4.6V37.4h23.3V59h4.6v-46h-4.6v20.4H94.8V13.1h-4.6V59L90.3,59z M128.8,59h23.3v-4h-18.8V37.4h17.1
			v-4h-17.1V17h18v-3.9h-22.5V59L128.8,59z M157.4,59h23v-4H162v-42h-4.6V59L157.4,59z M212.3,14c-2.4-1.2-7.8-1.7-10.5-1.7
			c-14.2,0-23.2,9.8-23.2,23.8s8.7,23.8,23.2,23.8c2.9,0,8-0.5,10.5-2l-0.3-4c-2.6,1.6-7.2,2-10.3,2c-12.1,0-18.6-8.2-18.6-19.8
			s6.7-19.8,18.6-19.8c3.2,0,7.4,0.5,10.3,2L212.3,14L212.3,14L212.3,14z M213.1,36c0.1,14.1,7,23.8,20.2,23.8s20.1-9.7,20.2-23.8
			c0.1-12.5-6.4-23.8-20.2-23.8S213,23.6,213.1,36L213.1,36z M233.3,16.2c10.8,0,15.7,10.1,15.7,19.8s-4.9,19.8-15.7,19.8
			S217.7,45.8,217.7,36S222.5,16.2,233.3,16.2L233.3,16.2z M257.5,59h4.5V17.6h0.1L279.5,59h3.9l16.7-41.5h0.1V59h4.5v-46h-6.5
			l-16.9,40.5L264.6,13h-7L257.5,59L257.5,59L257.5,59z"/>
	</g>
</g>
</svg>
