<?xml version="1.0" encoding="UTF-8"?>
<svg id="Layer_2" data-name="Layer 2" xmlns="http://www.w3.org/2000/svg" viewBox="0 0 30.33 29.47">
  <defs>
    <style>
      .cls-1 {
        fill: #6692b2;
      }
    </style>
  </defs>
  <g id="Layer_1-2" data-name="Layer 1">
    <g>
      <polygon class="cls-1" points="15.16 23.56 1.53 15.99 .95 17.04 15.16 24.93 29.38 17.04 28.8 15.99 15.16 23.56"/>
      <polygon class="cls-1" points="15.16 28.1 1.53 20.53 .95 21.58 15.16 29.47 29.38 21.58 28.8 20.53 15.16 28.1"/>
      <polygon class="cls-1" points="30.33 11.53 20.61 6.14 20.25 7.31 27.86 11.53 15.16 18.57 2.47 11.53 9.85 7.43 9.85 6.06 0 11.53 15.16 19.94 30.33 11.53"/>
      <path class="cls-1" d="M14.72,12.14c.56,0,1.09-.24,1.59-.72,.3-.29,.74-.85,1.31-1.69l-.38-.25c-.2,.33-.43,.65-.69,.95-.26,.3-.48,.45-.66,.45-.07,0-.13-.02-.19-.06s-.09-.12-.09-.24,.05-.4,.15-.82c.04-.16,.12-.46,.23-.89l.93-3.41,.33-1.19,.1-.37-.57,.11-.18,.03c-.26,.05-.7,.11-1.33,.18-.62,.07-1.1,.12-1.43,.14v.46c.25,.01,.43,.03,.58,.06,.09,.02,.17,.03,.23,.05,.15,.06,.22,.2,.22,.44,0,.04,0,.08-.01,.13,0,.05-.02,.09-.03,.14l-1.08,3.93c-.08,.29-.14,.52-.18,.7-.07,.31-.1,.53-.1,.67,0,.4,.13,.7,.38,.9,.25,.2,.54,.29,.86,.29Z"/>
      <path class="cls-1" d="M16.87,2.35c.32,0,.6-.12,.83-.35,.23-.23,.34-.51,.34-.83s-.11-.6-.34-.83c-.23-.23-.5-.34-.83-.34s-.6,.11-.83,.34c-.23,.23-.35,.5-.35,.83s.12,.6,.35,.83,.51,.35,.83,.35Z"/>
    </g>
  </g>
</svg>