<?xml version="1.0" encoding="UTF-8"?>
<svg id="Layer_2" data-name="Layer 2" xmlns="http://www.w3.org/2000/svg" viewBox="0 0 31 16.89">
  <defs>
    <style>
      .cls-1 {
        fill: #6692b2;
      }
    </style>
  </defs>
  <g id="Layer_1-2" data-name="Layer 1">
    <g>
      <path class="cls-1" d="M1.2,7.2V3.91C1.2,1.93,2.66,1.22,3.91,1.2H15.23c1.98,0,2.7,1.46,2.71,2.71v3.29c0,1.98-1.46,2.7-2.71,2.71h-.89v1.2h.89c1.35,0,3.91-.82,3.91-3.91V3.91c0-1.35-.82-3.91-3.91-3.91H3.91C2.56,0,0,.82,0,3.91v3.29c0,1.35,.82,3.91,3.91,3.91h6.69v-1.2H3.91c-1.98,0-2.7-1.46-2.71-2.71Z"/>
      <path class="cls-1" d="M27.09,5.78h-6.69v1.2h6.69c1.98,0,2.69,1.46,2.71,2.71v3.29c0,1.98-1.46,2.69-2.71,2.71H15.77c-1.98,0-2.7-1.46-2.71-2.71v-3.29c0-1.98,1.46-2.7,2.71-2.71h.89v-1.2h-.89c-1.35,0-3.91,.82-3.91,3.91v3.29c0,1.35,.82,3.91,3.91,3.91h11.32c1.35,0,3.91-.82,3.91-3.91v-3.29c0-1.35-.82-3.91-3.91-3.91Z"/>
    </g>
  </g>
</svg>