<?xml version="1.0" encoding="UTF-8"?>
<svg id="Layer_2" data-name="Layer 2" xmlns="http://www.w3.org/2000/svg" viewBox="0 0 23.94 24.25">
  <defs>
    <style>
      .cls-1 {
        fill: #6692b2;
      }
    </style>
  </defs>
  <g id="Layer_1-2" data-name="Layer 1">
    <g>
      <path class="cls-1" d="M0,11.34H11.34V0H0V11.34ZM4.54,2.01c.23-.01,.46,0,.69,.02,0,0,.02,0,.02,0-.37,.17-1.2,.6-1.16,1.44,.02,.34,.19,.61,.32,.82,.07,.12,.17,.26,.16,.33,0,.07-.08,.21-.15,.32-.14,.25-.37,.66-.18,1.07-.25,.29-.48,.61-.7,.98-.08,.13-.15,.26-.22,.33-.09,.08-.26,.13-.41,.16-.64,.17-1.18,.24-1.71,.25V3.96s.09,.06,.15,.08c.16,.05,.32,.08,.48,.08,.48,0,.96-.22,1.26-.61,.18-.23,.27-.48,.36-.71,.07-.17,.13-.33,.21-.44,.16-.2,.48-.33,.88-.35ZM1.2,8.73c.62,0,1.23-.09,1.96-.28,.27-.07,.56-.17,.81-.37,.21-.18,.34-.4,.48-.66,.22-.38,.49-.72,.8-1.03h1.36s.08,.01,.05,.03l.47,.96c.21,.42,.17,.59,.15,.61-.03,.03-.16,.07-.26,.09-.23,.06-.54,.14-.76,.41-.35,.42-.28,1.07,.17,1.65H1.2v-1.41Zm8.94,1.41h-2.48c-.11-.2-.25-.38-.37-.53l-.07-.09c-.15-.19-.19-.36-.19-.39,.03-.03,.17-.06,.25-.09,.21-.06,.48-.13,.7-.34,.29-.27,.53-.8,.06-1.77l-.47-.96c-.05-.11-.14-.29-.33-.42-.23-.16-.47-.16-.62-.16h-1.3c.11-.2,.23-.44,.25-.71,.03-.39-.16-.69-.31-.93-.08-.13-.16-.26-.17-.33,0-.06,.05-.24,.65-.51,.65-.29,.95-.64,1.08-.94,.66-.13,1.22-.39,1.67-.77h1.65V10.14ZM3.63,1.2c-.31,.13-.57,.31-.76,.55-.17,.23-.27,.48-.35,.7-.07,.17-.13,.34-.21,.45-.12,.16-.35,.24-.55,.22,0-.02-.01-.04-.02-.06-.05-.21-.15-.61-.54-.82V1.2H3.63Z"/>
      <path class="cls-1" d="M12.6,0V11.34h11.34V0H12.6Zm8.54,8.95c0-.07,0-.14,0-.21-.06-.44-.38-.7-.62-.88-.11-.09-.24-.19-.27-.25-.05-.11,.11-.37,.24-.59,.09-.15,.18-.29,.25-.44,.13-.28,.19-.57,.24-.83l.05-.26c.07-.29,.17-.49,.29-.58,.03-.02,.06-.03,.09-.04-.04,.76,.02,1.52,.18,2.27,.02,.11,.08,.39,.36,.54,.22,.13,.45,.09,.54,.07,.07-.01,.16-.02,.24-.03v1.42c-.51-.17-1.05-.25-1.6-.19Zm-1.73-6.87c.03,.05,.05,.1,.08,.15,.02,.04,.06,.1,.06,.11,0,0-.03,.12-.38,.34l-1.59,1c-.38-.48-.77-.94-1.19-1.38,.01-.4-.11-.77-.3-1.1h3.26c-.09,.25-.11,.54,.06,.88Zm-4.65-.88c.38,.25,.7,.73,.62,1.2l-.04,.25,.17,.18c.55,.57,1.07,1.18,1.55,1.82l.28,.36,2.37-1.48c.66-.41,.94-.88,.83-1.39-.04-.17-.11-.3-.17-.4l-.05-.09c-.04-.09-.05-.13,.25-.44h2.18V6.71c-.07,0-.13,.01-.2,.02-.13-.69-.16-1.38-.1-2.08l.02-.17-.09-.14c-.15-.23-.39-.39-.67-.45-.33-.06-.68,.01-.95,.21-.33,.24-.55,.62-.68,1.16-.02,.1-.04,.19-.06,.29-.04,.22-.09,.43-.16,.59-.05,.11-.12,.23-.19,.34-.24,.38-.56,.91-.32,1.5,.13,.31,.37,.5,.57,.65,.08,.06,.24,.19,.25,.23,0,.03,0,.07,0,.11,0,.17-.03,.46,.19,.71,.28,.32,.7,.28,.9,.26,.47-.05,.94,.02,1.37,.2h-4.29l-.03-.53c0-.14-.03-.48-.31-.7-.19-.15-.41-.16-.52-.17l-1.56-.08c.07-.03,.15-.06,.22-.09,.27-.1,.57-.21,.82-.47,.46-.47,.49-1.27,.06-1.77-.28-.33-.68-.47-1.02-.59-.31-.11-.52-.19-.6-.41-.03-.12-.07-.27-.19-.43-.17-.22-.45-.36-.79-.37-.21-.01-.42,.02-.6,.07V1.2h.96Zm-.96,4.57c.13-.16,.36-.22,.62-.17,.02,.07,.04,.13,.06,.2,.22,.56,.75,.74,1.17,.89,.25,.09,.48,.17,.59,.3,.09,.11,.09,.32-.01,.43-.09,.09-.26,.16-.45,.23-.13,.05-.27,.1-.39,.16-.35,.18-.63,.5-.72,.84-.07,.27-.03,.53,.11,.76l.14,.21,2.39,.12,.02,.4h-3.51V5.77Z"/>
      <path class="cls-1" d="M0,24.25H11.34V12.91H0v11.34Zm4.57-7.99c.22-.09,.45-.19,.68-.24,.28,.05,1.42,.85,1.92,1.66,.16,.26,.18,.41,.17,.46-.36,1.26,.88,2.23,1.98,3.08,.3,.24,.57,.46,.82,.68v.33c-.83-.18-1.68,.11-2.34,.33-.43,.15-.97,.33-1.06,.19-.75-1.15-1.97-1.2-2.91-1.03,.08-.04,.17-.07,.27-.11,.42-.17,.94-.38,.98-.95,.03-.43-.36-.95-.74-1.3-.4-.37-1.45-1.13-3.13-1.07v-3.25c1.8,1.64,2.4,1.63,3.37,1.22Zm1.11,6.79H2.71c.11-.02,.22-.06,.36-.1,.99-.32,1.98-.51,2.61,.1Zm-4.48-3.75c1.73-.07,2.69,.92,2.85,1.24-.08,.05-.23,.1-.34,.15-.55,.22-1.48,.6-1.71,1.76l-.05,.31,.21,.19c.06,.05,.12,.09,.18,.11H1.2v-3.75Zm8.94,1.3c-.07-.05-.13-.11-.2-.16-.85-.66-1.8-1.41-1.63-2.02,.15-.53-.1-1.16-.76-1.88-.49-.54-1.72-1.62-2.4-1.5-.42,.07-.73,.2-.97,.31-.53,.22-.83,.35-2.51-1.23H10.14v6.49Z"/>
      <path class="cls-1" d="M12.6,24.25h11.34V12.91H12.6v11.34Zm1.2-8.36c.33,.08,.64,.18,.94,.29,.81,.29,1.66,.58,2.76,.38,.11-.02,.19-.03,.19-.06,0,.03,.02,.07,.02,.11l-.9,.1c-.33,.04-1.33,.15-1.6,.97-.24,.75,.34,1.44,1.03,1.78l.22,.11c.34,.16,.65,.31,.75,.53,.11,.26-.08,.65-.28,1.06-.27,.54-.59,1.22-.27,1.9h-2.85v-7.16Zm4.03,7.16c-.05-.09-.11-.17-.15-.24-.04-.06-.08-.11-.11-.17-.12-.23,.02-.55,.26-1.05,.26-.54,.59-1.2,.3-1.89-.24-.58-.8-.84-1.24-1.05l-.2-.1c-.32-.16-.57-.43-.52-.57,.02-.06,.13-.21,.76-.28l1.08-.12c.1,.23,.22,.46,.33,.68,.23,.45,.45,.87,.51,1.29l.05,.35,.35,.07c.45,.08,.8,.03,1.08-.01,.35-.06,.49-.08,.75,.14,.14,.12,.24,.33,.33,.55,.32,.71,.75,.82,1.13,.87,.1,.01,.15,.02,.2,.06v1.48h-4.91Zm4.91-8.94v6.43s-.05-.01-.07-.01c-.2-.03-.23-.03-.35-.29-.13-.28-.29-.64-.6-.9-.61-.51-1.13-.43-1.54-.36-.14,.02-.28,.04-.43,.05-.12-.43-.33-.83-.53-1.21-.23-.45-.45-.87-.51-1.29-.03-.18-.08-.52-.35-.76-.36-.31-.82-.22-1.04-.18-.84,.15-1.49-.07-2.24-.34-.38-.13-.81-.26-1.27-.36v-.76h8.94Z"/>
    </g>
  </g>
</svg>