<?xml version="1.0" encoding="UTF-8"?>
<svg id="Layer_2" data-name="Layer 2" xmlns="http://www.w3.org/2000/svg" viewBox="0 0 18.39 28.56">
  <defs>
    <style>
      .cls-1 {
        fill: #6692b2;
      }
    </style>
  </defs>
  <g id="Layer_1-2" data-name="Layer 1">
    <g>
      <path class="cls-1" d="M9.2,0C4.13,0,0,4.13,0,9.2S8.34,27.21,8.69,27.77l.51,.79,.51-.79c.35-.56,8.69-13.7,8.69-18.57S14.27,0,9.2,0Zm0,26.31C7.37,23.34,1.2,13.07,1.2,9.2,1.2,4.79,4.79,1.2,9.2,1.2s8,3.59,8,8c0,3.87-6.17,14.15-8,17.11Z"/>
      <path class="cls-1" d="M9.2,3.37c-3.14,0-5.69,2.55-5.69,5.69s2.55,5.69,5.69,5.69,5.69-2.55,5.69-5.69-2.55-5.69-5.69-5.69Zm0,10.17c-2.47,0-4.49-2.01-4.49-4.49s2.01-4.49,4.49-4.49,4.49,2.01,4.49,4.49-2.01,4.49-4.49,4.49Z"/>
    </g>
  </g>
</svg>