<?xml version="1.0" encoding="UTF-8"?>
<svg id="Layer_2" data-name="Layer 2" xmlns="http://www.w3.org/2000/svg" viewBox="0 0 27.06 16.5">
  <defs>
    <style>
      .cls-1 {
        fill: #6692b2;
      }
    </style>
  </defs>
  <g id="Layer_1-2" data-name="Layer 1">
    <g>
      <rect class="cls-1" width="19.82" height="1.19"/>
      <rect class="cls-1" y="5.95" width="10.21" height="1.19"/>
      <rect class="cls-1" y="11.89" width="10.21" height="1.19"/>
      <path class="cls-1" d="M22.29,13.42l-.29,.25c-.97,.85-2.23,1.32-3.53,1.32-1.2,0-2.33-.39-3.28-1.12-2.33-1.81-2.76-5.19-.94-7.52,1.02-1.31,2.57-2.07,4.24-2.07,1.2,0,2.34,.39,3.28,1.13,2.02,1.57,2.65,4.37,1.49,6.65l-.17,.34,3.97,3.08-.8,1.03-3.97-3.08Zm-3.81-8.06c-1.33,0-2.56,.6-3.38,1.65-.7,.9-1.01,2.02-.86,3.15,.14,1.13,.72,2.14,1.62,2.84,.76,.59,1.66,.9,2.62,.9,1.33,0,2.56-.6,3.38-1.65,1.45-1.86,1.11-4.55-.75-5.99-.76-.59-1.66-.9-2.62-.9Z"/>
    </g>
  </g>
</svg>