<?xml version="1.0" encoding="UTF-8"?>
<svg id="Layer_2" data-name="Layer 2" xmlns="http://www.w3.org/2000/svg" viewBox="0 0 22.56 19.79">
  <defs>
    <style>
      .cls-1 {
        fill: #00497f;
      }
    </style>
  </defs>
  <g id="Layer_1-2" data-name="Layer 1">
    <path class="cls-1" d="M14.84,14.81l-.46,.41c-1.58,1.38-3.61,2.14-5.72,2.14-1.94,0-3.78-.63-5.31-1.82C-.43,12.59-1.11,7.13,1.82,3.35,3.48,1.22,5.98,0,8.69,0c1.94,0,3.78,.63,5.31,1.82,3.27,2.54,4.29,7.07,2.42,10.77l-.28,.55,6.42,4.99-1.3,1.67-6.42-4.99ZM8.68,1.76c-2.16,0-4.15,.97-5.47,2.67-1.13,1.46-1.63,3.27-1.4,5.1,.23,1.84,1.16,3.47,2.62,4.6,1.22,.95,2.69,1.45,4.24,1.45,2.16,0,4.15-.97,5.47-2.67,2.34-3.01,1.79-7.36-1.22-9.7-1.22-.95-2.69-1.45-4.24-1.45Z"/>
  </g>
</svg>